<?xml version="1.0" encoding="UTF-8"?>
<!DOCTYPE svg PUBLIC "-//W3C//DTD SVG 1.1//EN" "http://www.w3.org/Graphics/SVG/1.1/DTD/svg11.dtd">
<!-- Creator: CorelDRAW 2021 (64-Bit) -->
<svg xmlns="http://www.w3.org/2000/svg" xml:space="preserve" width="1.72795in" height="0.638189in" version="1.1" style="shape-rendering:geometricPrecision; text-rendering:geometricPrecision; image-rendering:optimizeQuality; fill-rule:evenodd; clip-rule:evenodd"
viewBox="0 0 1727.95 638.19"
 xmlns:xlink="http://www.w3.org/1999/xlink"
 xmlns:xodm="http://www.corel.com/coreldraw/odm/2003">
 <defs>
  <style type="text/css">
   <![CDATA[
    .fil0 {fill:white;fill-rule:nonzero}
   ]]>
  </style>
 </defs>
 <g id="Layer_x0020_1">
  <metadata id="CorelCorpID_0Corel-Layer"/>
  <path class="fil0" d="M901.71 139.06c2.89,0 5.32,0.98 7.29,2.95 1.97,1.97 2.96,4.27 2.96,6.9l0 44.14c0,2.89 -0.98,5.26 -2.96,7.09 -1.97,1.84 -4.4,2.76 -7.29,2.76l-91.43 0c5.78,0 10.97,2.1 15.57,6.31 4.59,4.2 6.89,8.93 6.89,14.19l0 180.49c0,2.89 -1.05,5.12 -3.15,6.7 -1.84,1.84 -4.2,2.76 -7.09,2.76l-54.78 0c-2.89,0 -5.25,-0.92 -7.09,-2.76 -2.1,-1.58 -3.15,-3.81 -3.15,-6.7l0 -189.16c0,-3.68 -1.19,-6.57 -3.55,-8.67 -2.37,-2.1 -5.12,-3.15 -8.28,-3.15l-57.14 0c-2.63,0 -4.99,-0.92 -7.09,-2.76 -2.1,-1.84 -3.15,-4.2 -3.15,-7.09l0 -20.1c0,-4.99 0.98,-9.59 2.96,-13.79 1.97,-4.2 4.6,-7.81 7.88,-10.84 3.28,-3.02 6.96,-5.32 11.04,-6.9 4.07,-1.57 8.21,-2.36 12.41,-2.36l189.16 0 -0.01 -0.02zm-611.32 -138.24l-214.4 0c-43.32,0 -78.76,35.44 -78.76,78.76l0 12.7c33.34,4.26 67.67,11.65 102.28,21.33 20.15,-19.4 81.33,-71.81 190.88,-112.8l0 0.01zm339.25 48.79c-11.85,-28.57 -40.07,-48.8 -72.8,-48.8l-139 0c-120.44,42.55 -219.97,119.91 -241.79,137.57 42.77,15.63 85.2,33.9 126.01,53.33 189.16,-117.97 298.63,-138.57 327.58,-142.11l0 0.01zm5.96 157.91l0 -127.95c0,-0.2 -0.01,-0.4 -0.01,-0.6 -28.63,12.67 -190.57,85.19 -276,141.38 43.6,22.63 84.38,45.81 120.51,67.49 17.88,-15.3 76.67,-61.44 155.5,-80.32l0 0zm0 182.09l0 -136.74c-53.99,14.82 -97.96,53.57 -108.8,63.7 66.73,42.07 108.8,73.04 108.8,73.04zm0 149.64l0 -126.04c0,0 -272.17,-206.63 -638.37,-271.87l0 125.61c0,0 383.95,82.62 638.37,272.3zm-155.5 99.94l76.74 0c35.79,0 66.2,-24.19 75.69,-57.04 -0.09,-0.07 -300.68,-222.42 -635.3,-261.8l0 123.16c44.26,5.31 274.65,39.59 482.87,195.67l0 0.01zm213.6 -181.97l0 11.64 18.76 0 0 10.81 -18.76 0 0 12.62 21.22 0 0 11.23 -35.23 0 0 -57.52 35.23 0 0 11.22 -21.22 0zm-617.71 181.97l316.46 0c-148.37,-102.16 -331.97,-138.57 -395.22,-148.58l0 69.83c0,43.31 35.44,78.76 78.76,78.76l0 -0.01zm699.49 -135.67l-14.01 0 -23.43 -35.48 0 35.48 -14.01 0 0 -57.52 14.01 0 23.43 35.65 0 -35.65 14.01 0 0 57.52zm64.16 -57.52l-20.4 57.52 -17.54 0 -20.4 -57.52 14.91 0 14.26 43.43 14.34 -43.43 14.83 0 0 0zm19.83 0l0 57.52 -14.01 0 0 -57.52 14.01 0zm39.5 57.52l-11.96 -21.72 -3.36 0 0 21.72 -14.01 0 0 -57.52 23.52 0c4.54,0 8.4,0.79 11.59,2.37 3.2,1.59 5.59,3.76 7.17,6.52 1.59,2.76 2.38,5.83 2.38,9.22 0,3.82 -1.08,7.24 -3.24,10.24 -2.16,3.01 -5.34,5.14 -9.55,6.39l13.28 22.78 -15.81 0 -0.01 0zm-15.32 -31.63l8.69 0c2.57,0 4.49,-0.63 5.78,-1.89 1.28,-1.26 1.93,-3.03 1.93,-5.33 0,-2.19 -0.64,-3.91 -1.93,-5.16 -1.28,-1.26 -3.21,-1.89 -5.78,-1.89l-8.69 0 0 14.26 0 0.01zm66.62 32.2c-5.41,0 -10.37,-1.26 -14.87,-3.77 -4.51,-2.51 -8.08,-6.02 -10.73,-10.53 -2.65,-4.51 -3.98,-9.57 -3.98,-15.2 0,-5.63 1.33,-10.68 3.98,-15.16 2.65,-4.48 6.22,-7.98 10.73,-10.49 4.51,-2.51 9.46,-3.77 14.87,-3.77 5.41,0 10.37,1.26 14.87,3.77 4.51,2.51 8.06,6.01 10.65,10.49 2.59,4.48 3.89,9.54 3.89,15.16 0,5.63 -1.31,10.69 -3.93,15.2 -2.62,4.5 -6.17,8.02 -10.65,10.53 -4.48,2.51 -9.42,3.77 -14.83,3.77zm0 -12.78c4.59,0 8.26,-1.53 11.02,-4.59 2.76,-3.06 4.14,-7.1 4.14,-12.13 0,-5.08 -1.38,-9.14 -4.14,-12.17 -2.76,-3.03 -6.43,-4.55 -11.02,-4.55 -4.65,0 -8.35,1.5 -11.1,4.51 -2.76,3 -4.14,7.07 -4.14,12.21 0,5.08 1.38,9.13 4.14,12.17 2.76,3.03 6.46,4.55 11.1,4.55zm88.66 12.21l-14.01 0 -23.44 -35.48 0 35.48 -14.01 0 0 -57.52 14.01 0 23.44 35.65 0 -35.65 14.01 0 0 57.52zm75.3 -57.52l0 57.52 -14.01 0 0 -34.5 -12.87 34.5 -11.31 0 -12.94 -34.58 0 34.58 -14.01 0 0 -57.52 16.55 0 16.14 39.82 15.98 -39.82 16.47 0 0 0zm24.09 11.22l0 11.64 18.76 0 0 10.81 -18.76 0 0 12.62 21.22 0 0 11.23 -35.24 0 0 -57.52 35.24 0 0 11.22 -21.22 0zm81.78 46.3l-14.01 0 -23.44 -35.48 0 35.48 -14.01 0 0 -57.52 14.01 0 23.44 35.65 0 -35.65 14.01 0 0 57.52zm51.54 -57.52l0 11.22 -15.24 0 0 46.3 -14.01 0 0 -46.3 -15.24 0 0 -11.22 44.49 0 0 0zm42.86 47.36l-21.47 0 -3.44 10.16 -14.67 0 20.81 -57.52 16.22 0 20.81 57.52 -14.83 0 -3.44 -10.16 0.01 0zm-3.61 -10.81l-7.13 -21.06 -7.05 21.06 14.18 0zm42.2 10.16l18.35 0 0 10.82 -32.37 0 0 -57.52 14.01 0 0 46.7 0.01 0zm63.26 11.39c-4.2,0 -7.97,-0.68 -11.31,-2.05 -3.33,-1.37 -6,-3.39 -7.99,-6.06 -2,-2.68 -3.05,-5.9 -3.15,-9.67l14.91 0c0.22,2.13 0.95,3.76 2.21,4.87 1.26,1.12 2.9,1.68 4.92,1.68 2.08,0 3.72,-0.48 4.92,-1.43 1.2,-0.96 1.8,-2.28 1.8,-3.98 0,-1.42 -0.48,-2.59 -1.43,-3.52 -0.96,-0.93 -2.13,-1.69 -3.52,-2.29 -1.39,-0.6 -3.37,-1.28 -5.94,-2.05 -3.72,-1.15 -6.75,-2.29 -9.09,-3.44 -2.35,-1.15 -4.37,-2.84 -6.07,-5.08 -1.69,-2.24 -2.54,-5.16 -2.54,-8.77 0,-5.35 1.94,-9.55 5.82,-12.58 3.88,-3.03 8.93,-4.55 15.16,-4.55 6.34,0 11.44,1.52 15.32,4.55 3.88,3.03 5.96,7.25 6.23,12.66l-15.16 0c-0.11,-1.86 -0.79,-3.32 -2.05,-4.39 -1.26,-1.06 -2.87,-1.6 -4.83,-1.6 -1.69,0 -3.06,0.45 -4.09,1.35 -1.04,0.9 -1.56,2.2 -1.56,3.89 0,1.86 0.87,3.31 2.62,4.34 1.75,1.04 4.48,2.16 8.2,3.36 3.71,1.26 6.73,2.46 9.06,3.6 2.32,1.15 4.33,2.81 6.02,5 1.69,2.19 2.54,5 2.54,8.44 0,3.28 -0.83,6.26 -2.5,8.93 -1.67,2.68 -4.08,4.81 -7.25,6.39 -3.17,1.58 -6.91,2.37 -11.23,2.37l-0.02 0.03zm43.59 -46.87l0 11.64 18.76 0 0 10.81 -18.76 0 0 12.62 21.22 0 0 11.23 -35.24 0 0 -57.52 35.24 0 0 11.22 -21.22 0zm59.65 46.3l-11.96 -21.72 -3.36 0 0 21.72 -14.01 0 0 -57.52 23.52 0c4.54,0 8.4,0.79 11.59,2.37 3.2,1.59 5.59,3.76 7.17,6.52 1.58,2.76 2.37,5.83 2.37,9.22 0,3.82 -1.08,7.24 -3.24,10.24 -2.16,3.01 -5.34,5.14 -9.55,6.39l13.28 22.78 -15.81 0 0 0zm-15.32 -31.63l8.69 0c2.57,0 4.5,-0.63 5.78,-1.89 1.28,-1.26 1.93,-3.03 1.93,-5.33 0,-2.19 -0.64,-3.91 -1.93,-5.16 -1.28,-1.26 -3.21,-1.89 -5.78,-1.89l-8.69 0 0 14.26 0 0.01zm93.41 -25.89l-20.4 57.52 -17.54 0 -20.4 -57.52 14.91 0 14.26 43.43 14.34 -43.43 14.83 0 0 0zm19.83 0l0 57.52 -14.01 0 0 -57.52 14.01 0zm7.78 28.68c0,-5.68 1.23,-10.75 3.69,-15.2 2.46,-4.45 5.89,-7.92 10.28,-10.41 4.4,-2.48 9.38,-3.73 14.95,-3.73 6.83,0 12.67,1.8 17.54,5.41 4.86,3.61 8.11,8.52 9.75,14.75l-15.41 0c-1.15,-2.41 -2.77,-4.24 -4.87,-5.49 -2.11,-1.26 -4.5,-1.89 -7.17,-1.89 -4.32,0 -7.81,1.5 -10.49,4.51 -2.68,3 -4.01,7.02 -4.01,12.05 0,5.02 1.33,9.04 4.01,12.04 2.68,3 6.17,4.51 10.49,4.51 2.67,0 5.06,-0.63 7.17,-1.89 2.1,-1.26 3.73,-3.09 4.87,-5.49l15.41 0c-1.64,6.22 -4.89,11.13 -9.75,14.71 -4.86,3.57 -10.7,5.37 -17.54,5.37 -5.57,0 -10.56,-1.24 -14.95,-3.73 -4.4,-2.48 -7.83,-5.94 -10.28,-10.37 -2.46,-4.43 -3.69,-9.48 -3.69,-15.16l0 0zm78.83 -17.46l0 11.64 18.77 0 0 10.81 -18.77 0 0 12.62 21.22 0 0 11.23 -35.24 0 0 -57.52 35.24 0 0 11.22 -21.22 0zm-778.76 -44.68c-1.57,-2.1 -2.36,-4.07 -2.36,-5.91 0,-1.84 0.13,-3.02 0.39,-3.55l91.43 -251.43c2.89,-7.62 8.15,-11.43 15.76,-11.43l61.08 0c7.62,0 12.87,3.81 15.76,11.43l91.43 251.43c0.26,0.52 0.39,1.71 0.39,3.55 0,2.1 -0.85,4 -2.56,5.71 -1.71,1.71 -3.61,2.56 -5.71,2.56l-50.84 0c-6.57,0 -11.04,-2.89 -13.4,-8.67l-20.49 -55.57c-9.46,3.68 -19.05,6.7 -28.77,9.06 -9.72,2.37 -19.11,4.14 -28.18,5.32 -9.07,1.19 -17.54,1.97 -25.42,2.37 -7.88,0.39 -14.71,0.59 -20.49,0.59 -3.68,0 -6.76,0 -9.26,0 -2.5,0 -4.4,-0.13 -5.71,-0.39 4.73,0.79 8.6,3.42 11.63,7.88 3.02,4.47 3.35,9.72 0.98,15.76l-5.52 14.98c-2.36,5.78 -6.83,8.67 -13.4,8.67l-50.83 0c-1.84,0 -3.81,-0.79 -5.91,-2.37l0 0.01zm100.1 -100.89c7.35,-0.52 14.98,-1.44 22.86,-2.76 6.83,-1.05 13.99,-2.56 21.48,-4.53 7.49,-1.97 14.65,-4.8 21.48,-8.48l-30.34 -86.7 -35.47 102.46 -0.01 0.01zm428.76 19.7c0,16.03 -3.74,29.56 -11.23,40.59 -7.49,11.04 -17.01,19.97 -28.57,26.8 -11.56,6.83 -24.43,11.76 -38.62,14.78 -14.19,3.02 -27.98,4.54 -41.38,4.54 -12.87,0 -26.21,-1.31 -40,-3.94 -13.79,-2.63 -26.47,-7.03 -38.03,-13.2 -11.56,-6.17 -21.22,-14.31 -28.96,-24.43 -7.75,-10.11 -12.02,-22.66 -12.81,-37.63 0,-2.37 0.85,-4.33 2.56,-5.91 1.71,-1.58 3.74,-2.37 6.11,-2.37l52.41 0c1.57,0 2.95,0.13 4.14,0.39 1.18,0.26 2.3,0.66 3.35,1.18 1.84,1.05 4.07,2.89 6.7,5.52 4.2,8.41 10.44,14.12 18.72,17.14 8.28,3.02 16.88,4.53 25.81,4.53 3.94,0 8.47,-0.26 13.59,-0.79 5.13,-0.53 9.85,-1.64 14.19,-3.35 4.33,-1.71 8.08,-4.2 11.23,-7.49 3.15,-3.28 4.73,-7.55 4.73,-12.81 0,-7.09 -2.63,-12.22 -7.88,-15.37 -5.26,-3.15 -10.77,-5.65 -16.55,-7.49 -4.47,-1.57 -9.79,-3.09 -15.96,-4.53 -6.17,-1.44 -13.33,-2.95 -21.48,-4.53 -12.09,-2.36 -23.78,-5.45 -35.07,-9.26 -11.3,-3.81 -21.35,-8.87 -30.15,-15.17 -8.8,-6.3 -15.89,-14.25 -21.28,-23.84 -5.39,-9.59 -8.08,-21.35 -8.08,-35.27 0,-17.34 4.8,-32.25 14.39,-44.73 9.59,-12.48 22.13,-22 37.63,-28.57 16.81,-6.83 36.13,-10.24 57.93,-10.24 8.67,0 17.67,0.72 27,2.17 9.33,1.44 18.39,3.81 27.19,7.09 8.8,3.28 17.01,7.62 24.63,13 7.62,5.39 14.19,11.89 19.7,19.51 8.93,11.56 13.79,23.25 14.58,35.07 0,2.1 -0.85,4.07 -2.56,5.91 -1.71,1.84 -3.61,2.76 -5.72,2.76l-55.17 0c-5.52,0 -9.85,-2.37 -13.01,-7.09 -1.57,-5.52 -5.65,-10.24 -12.22,-14.19 -7.09,-3.68 -15.24,-5.52 -24.43,-5.52 -3.94,0 -7.94,0.26 -12.02,0.79 -4.07,0.52 -7.81,1.7 -11.23,3.55 -3.42,1.84 -6.18,4.27 -8.28,7.29 -2.1,3.02 -3.15,6.9 -3.15,11.63 0,7.36 3.94,13.27 11.82,17.74 7.88,4.2 22.59,8.54 44.14,13 12.35,2.36 24.63,5.19 36.85,8.47 12.22,3.28 23.05,7.94 32.51,13.99 9.46,6.04 17.14,13.86 23.05,23.45 5.91,9.59 8.87,21.87 8.87,36.85l0.01 -0.02zm148.96 -61.08c4.73,0 9.2,0.92 13.4,2.76 4.2,1.84 7.94,3.94 11.23,6.3 3.28,2.37 6.11,4.73 8.47,7.09 2.37,2.37 4.07,4.07 5.13,5.12l82.36 109.16c1.05,0.79 1.57,2.37 1.57,4.73 0,2.1 -0.79,3.94 -2.36,5.52 -1.84,1.57 -3.94,2.36 -6.31,2.36l-61.48 0c-6.83,0 -12.09,-2.49 -15.76,-7.48 -12.35,-16.03 -23.51,-30.48 -33.5,-43.35 -6.04,-7.62 -10.9,-13.79 -14.58,-18.52 -3.68,-4.73 -7.09,-9.13 -10.24,-13.2 -3.15,-4.07 -5.85,-7.56 -8.08,-10.44 -2.23,-2.89 -3.61,-4.73 -4.14,-5.52 -1.05,-0.52 -1.71,-0.79 -1.97,-0.79 -1.31,0 -1.97,0.79 -1.97,2.37l0 87.48c0,2.89 -0.92,5.19 -2.76,6.9 -1.84,1.71 -4.2,2.56 -7.09,2.56l-52.41 0c-2.63,0 -4.93,-0.85 -6.89,-2.56 -1.97,-1.71 -2.96,-4.01 -2.96,-6.9l0 -230.93c0,-8.67 3.15,-16.48 9.46,-23.45 6.31,-6.96 14.45,-10.44 24.43,-10.44l28.37 0c2.89,0 5.26,0.92 7.09,2.76 1.84,1.84 2.76,4.2 2.76,7.09l0 79.61c0,1.31 0.66,1.97 1.97,1.97 0.79,0 1.44,-0.26 1.97,-0.79l65.42 -83.15c3.15,-4.99 8.28,-7.49 15.37,-7.49l59.9 0c2.1,0 4.07,0.79 5.91,2.36 1.57,1.58 2.37,3.42 2.37,5.52 0,2.63 -0.53,4.2 -1.58,4.73 -13.4,17.6 -25.48,33.37 -36.26,47.29 -6.57,8.41 -11.69,15.11 -15.37,20.09 -3.68,4.99 -7.16,9.59 -10.44,13.8 -3.28,4.2 -6.04,7.69 -8.28,10.44 -2.23,2.76 -3.48,4.27 -3.74,4.54 -0.53,0.79 -1.84,2.43 -3.94,4.93 -2.1,2.5 -4.86,5.06 -8.28,7.69 -3.42,2.63 -7.42,4.93 -12.02,6.89 -4.6,1.97 -9.52,2.96 -14.78,2.96l0.01 0z"/>
 </g>
</svg>
