<?xml version="1.0" encoding="UTF-8"?>
<!DOCTYPE svg PUBLIC "-//W3C//DTD SVG 1.1//EN" "http://www.w3.org/Graphics/SVG/1.1/DTD/svg11.dtd">
<!-- Creator: CorelDRAW 2021 (64-Bit) -->
<svg xmlns="http://www.w3.org/2000/svg" xml:space="preserve" width="0.116661in" height="0.116661in" version="1.1" style="shape-rendering:geometricPrecision; text-rendering:geometricPrecision; image-rendering:optimizeQuality; fill-rule:evenodd; clip-rule:evenodd"
viewBox="0 0 116.66 116.66"
 xmlns:xlink="http://www.w3.org/1999/xlink"
 xmlns:xodm="http://www.corel.com/coreldraw/odm/2003">
 <defs>
  <style type="text/css">
   <![CDATA[
    .fil1 {fill:white}
    .fil0 {fill:url(#id0)}
   ]]>
  </style>
  <linearGradient id="id0" gradientUnits="userSpaceOnUse" x1="100.41" y1="96.82" x2="7.91" y2="28.45">
   <stop offset="0" style="stop-opacity:1; stop-color:#085B57"/>
   <stop offset="0.368627" style="stop-opacity:1; stop-color:#25A043"/>
   <stop offset="1" style="stop-opacity:1; stop-color:#B5D91F"/>
  </linearGradient>
 </defs>
 <g id="Layer_x0020_1">
  <metadata id="CorelCorpID_0Corel-Layer"/>
  <circle class="fil0" cx="56.67" cy="60" r="58.06"/>
  <g id="_2068423859744">
   <path class="fil1" d="M53.38 19.68l-27.08 0c-5.47,0 -9.95,4.48 -9.95,9.95l0 1.61c4.21,0.54 8.55,1.47 12.92,2.69 2.54,-2.45 10.27,-9.07 24.11,-14.25z"/>
   <path class="fil1" d="M96.23 25.84c-1.5,-3.61 -5.06,-6.17 -9.2,-6.17l-17.56 0c-15.21,5.37 -27.79,15.15 -30.54,17.38 5.41,1.97 10.76,4.28 15.92,6.74 23.9,-14.9 37.72,-17.5 41.38,-17.95z"/>
   <path class="fil1" d="M96.98 45.79l0 -16.16c0,-0.03 0,-0.05 0,-0.07 -3.62,1.6 -24.07,10.76 -34.87,17.86 5.51,2.86 10.66,5.79 15.22,8.52 2.26,-1.93 9.69,-7.76 19.64,-10.15z"/>
   <path class="fil1" d="M96.98 68.79l0 -17.27c-6.82,1.87 -12.37,6.77 -13.74,8.05 8.43,5.31 13.74,9.22 13.74,9.22z"/>
   <path class="fil1" d="M96.98 87.69l0 -15.93c0,0 -34.38,-26.1 -80.64,-34.34l0 15.87c0,0 48.5,10.44 80.64,34.4z"/>
   <path class="fil1" d="M77.34 100.31l9.69 0c4.52,0 8.36,-3.06 9.56,-7.2 -0.02,-0.01 -37.98,-28.09 -80.25,-33.07l0 15.56c5.59,0.67 34.69,5 61,24.72z"/>
   <path class="fil1" d="M26.3 100.31l39.98 0c-18.74,-12.91 -41.94,-17.5 -49.93,-18.77l0 8.82c0,5.47 4.48,9.95 9.95,9.95z"/>
  </g>
 </g>
</svg>
