<?xml version="1.0" encoding="UTF-8"?>
<!DOCTYPE svg PUBLIC "-//W3C//DTD SVG 1.1//EN" "http://www.w3.org/Graphics/SVG/1.1/DTD/svg11.dtd">
<!-- Creator: CorelDRAW 2021 (64-Bit) -->
<svg xmlns="http://www.w3.org/2000/svg" xml:space="preserve" width="0.261417in" height="0.222433in" version="1.1" style="shape-rendering:geometricPrecision; text-rendering:geometricPrecision; image-rendering:optimizeQuality; fill-rule:evenodd; clip-rule:evenodd"
viewBox="0 0 261.42 222.43"
 xmlns:xlink="http://www.w3.org/1999/xlink"
 xmlns:xodm="http://www.corel.com/coreldraw/odm/2003">
 <defs>
  <style type="text/css">
   <![CDATA[
    .fil1 {fill:#085B57}
    .fil0 {fill:#B5D91F}
   ]]>
  </style>
 </defs>
 <g id="Layer_x0020_1">
  <metadata id="CorelCorpID_0Corel-Layer"/>
  <g id="_2062311087216">
   <path class="fil0" d="M28.98 185.68c0.75,-1.25 0.55,-0.73 0.2,-2.15 -0.33,0.16 -1.1,-0.43 -0.99,1.28 0.08,1.31 0.54,0.72 0.79,0.87z"/>
   <path class="fil0" d="M23.05 189.61c0.7,-1.27 0.64,-0.82 0.11,-2.15 -0.32,0.17 -0.99,-0.18 -0.91,1.2 0.09,1.63 0.35,0.65 0.8,0.94z"/>
   <path class="fil0" d="M30.42 188.33c-0.05,-1.42 -0.52,-0.75 -0.59,-0.83 -0.95,1.25 -0.71,0.97 0,2.11 0.59,-0.64 0.7,1.34 0.59,-1.28z"/>
  </g>
  <g id="_2062311085776">
   <path class="fil0" d="M97.92 211.43c-0.35,-0.63 -6.53,-6.22 0.08,-12.54 -6.53,-0.41 -7.07,12.38 -0.08,12.54z"/>
   <path class="fil0" d="M71.95 205.4c-1.53,-1.28 -2.8,-2.92 -2.96,-5.68 -0.18,-3.24 0.73,-4.28 2.3,-6.03 0.65,-0.72 0.13,-0.08 0.63,-0.77 -7.31,0.23 -6.35,13.2 0.02,12.48z"/>
   <path class="fil0" d="M26.94 185.77c-3.12,0.39 -2.74,4.34 -0.51,5.64 1.22,-0.62 1.57,-0.96 1.57,-2.72 -0,-1.5 -0.38,-2.2 -1.06,-2.92z"/>
  </g>
  <path class="fil0" d="M226.8 66.19c-1.44,0.51 -2.37,0.83 -3.98,0.75 -1.02,0.89 -1.99,0.63 -3.28,1.46l10.89 2.74 2.91 11.13 0.88 -2.71c2.78,-9.96 0.81,-8.11 7.86,-9.85 0.91,-0.23 1.74,-0.4 2.73,-0.66l2.4 -0.97 -10.95 -2.8c-0.38,-2.2 -1.44,-4.42 -1.3,-6.6 -0.84,-1.11 -1.06,-2.78 -1.26,-4.13 -0.61,0.66 -0.13,-0.26 -0.81,1.27l-1.05 4.08c-0.43,1.7 -0.94,3.65 -1.34,5.45l-3.72 0.84zm-5.28 106.23c1.39,-0.36 0.14,0.41 1.04,-0.67 -1.06,-1.79 -0.71,-1.33 -0.71,-3.46l-7.56 -0.5c0.29,-2.91 -0.86,0.8 -0.57,-6.86l-2.28 0.05c-1.28,2.31 -1.77,5.97 -2.46,8.63l-8.06 2.14c0.08,0.07 0.21,0.14 0.27,0.17l0.85 0.45c8.03,3.08 5.84,-2.34 9.07,10 1.27,-2 1.59,-5.48 2.39,-8.22 2.32,-0.64 5.79,-1.76 8.02,-1.73zm1.47 -51.8l-0.24 -0.21c-0.1,0.08 -0.26,0.05 -0.32,0.21 -0.06,0.15 -0.24,0.15 -0.31,0.19l-1.94 0.77 5.37 1.49 1.24 5.11c0.76,-1.16 0.54,-1.87 1.44,-2.97l0.06 -2.03 1.27 -0.05c1.19,-0.82 2.63,-1.03 4.11,-1.37 -1.51,-0.99 -3.8,-0.87 -5,-1.85 -0.93,-1.1 -1.12,-3.81 -1.87,-4.99 -1.47,5.97 -0.74,5.24 -3.81,5.7zm25.22 16.11c3.19,-0.23 2.79,0.06 4.35,6.72 0.07,-0.09 0.16,-0.35 0.18,-0.3l1.34 -4.63c0.64,-1.79 -0.22,-1.07 1.32,-1.61l5.54 -1.41c-1.1,-0.99 -1.74,-0.99 -3.2,-1.34l-3.15 -0.8c-0.37,-1.3 -0.61,-2.17 -0.87,-3.36 -0.27,-1.2 -0.5,-2.43 -1.2,-2.89l-1.73 6.35c-1.78,0.36 -5.04,0.95 -6.39,1.93 0.74,0.14 1.57,0.3 2.2,0.49l1.61 0.84zm-155.7 -124.56l0.1 -0.26c-0.41,0.35 -0.22,0.25 -0.87,0.59l-2.91 0.97c-1.15,0.38 -2.36,0.8 -3.74,1.33 -8.53,3.32 -19.55,9.97 -19.85,10.07 -0.55,1.18 -3.34,2.81 -4.21,3 -0.7,1.21 -4.63,4.24 -6.02,5.54 -2.1,1.96 -3.6,3.33 -5.52,5.49l-10.17 12.38c-0.22,1.56 -1.57,3.13 -2.45,4.65 -4.58,7.91 -7.94,16.68 -10.02,25.58 -0.72,3.08 -1.31,9.44 -2.01,11.67 -0.19,6.37 -0.41,11.57 -0.05,18.07l14.77 -0.45c1.48,-2.54 2.24,-9.48 10.81,-10.84 4.3,-0.68 55.97,-1.44 62.97,-1.61 -0.18,-6.29 -0.93,-4.85 2.8,-9.22 -1.56,-4.72 -6.54,-9.88 -6.81,-14.81 -0.2,-3.48 1.41,-5.87 2.93,-7.79 1.61,-2.02 4.14,-3.12 5.4,-5.35 -1.57,-3.26 -2.82,-2.02 1.11,-6.35 1.55,-1.72 3.19,-3.76 4.47,-5.28 0.87,-1.04 1.56,-1.65 2.39,-2.7 0.92,-1.19 5.83,-7.23 7.06,-7.56 1.13,-2.63 3.26,-4.11 4.99,-6.24 0.86,-1.06 1.72,-1.83 2.59,-2.92 0.74,-0.92 1.65,-1.76 2.3,-2.59l10.36 -12.11c-1.8,-1.31 -4.63,-1.33 -6.07,-2.74 -2.26,0.09 -4.95,-1.11 -7.31,-1.54 -4.5,-1.89 -17.97,-2.54 -23.72,-2.42 -9.26,0.2 -15.03,2.11 -23.3,3.44zm100.15 148.85c0.29,-1.21 3.17,-4.72 4.29,-6.42 1.66,-2.51 2.8,-4.39 4.12,-6.89 1.54,-2.91 5.98,-11.61 6.43,-14.77 2.88,-7.74 4.64,-17.77 4.95,-26.86 0.22,-6.33 -0.78,-23.7 -3.44,-27.89 -4.46,4.44 -3.98,3.22 -13.13,3.34 -3.05,12.94 -6.02,26.59 -9.16,39.52 -2.11,8.68 -1.33,36.63 -1.26,47.21 1.36,-0.62 2.61,-2.13 3.61,-3.33l2.74 -3.25c0.76,-0.7 -0.28,0 0.86,-0.67z"/>
  <g id="_2062311100560">
   <path class="fil1" d="M120.21 204.63l-0.17 -4.34 4.01 -0.88 0.14 4.89c-1.51,0.35 -2.43,0.64 -3.98,0.33zm10.73 -1.54c-1.49,0.71 -3.61,0.97 -5.24,0.8l0.09 -4.74c1.71,-0.24 7.9,-2.46 5.16,3.93zm-27.86 6.35c-0.92,7.21 -12.09,8.39 -12.5,-3.84 -0.33,-9.76 8.54,-14.8 12.61,-5.06l-0.58 0.31c-4,2.19 -3.3,7.2 0.47,8.58zm59.06 -17.18l3.3 -0.42 -0.07 4.31 -3.33 0.11c-0.39,-1.74 -0.47,-2.41 0.1,-4.01zm-41.79 5.48c-0.63,-1.32 -0.53,-2.6 -0.17,-4.35l9.7 -1.75c1.5,0.08 1.52,0.12 1.54,2.11 0.04,3.38 -1.21,2.83 -4.26,3.26 -2.17,0.3 -4.93,1.09 -6.81,0.73zm46.36 -1.8l0.07 -4.11 4.59 -0.29c0.83,4.52 -0.18,4.71 -4.65,4.4zm-89.5 8.05c-1.53,2.12 -3.44,6.72 -8,4.59 -5.96,-2.78 -6.37,-15.32 -0.35,-18.58 4.53,-2.46 7.04,1.78 8.26,4.61 -0.07,0.06 -0.2,0.04 -0.23,0.16 -0.12,0.41 -2.95,0.56 -2.91,4.48 0.04,3.59 1.82,3.78 2.74,4.38l0.5 0.37zm-56 -13.62c-0.56,-4.24 0.58,-9.39 3.4,-10.8 4.17,-2.09 6.62,4 7.04,7.39 1.47,12.15 -8.85,15.47 -10.43,3.41zm140.88 -0.13c-0.46,-1.64 -0.5,-2.32 0.05,-3.93 1.74,-0.39 3.57,-0.33 5.35,-0.47 2.77,-0.22 4.22,-1.03 4.16,1.97 -0.04,2.57 -1.33,2.17 -3.72,2.29 -1.96,0.09 -3.92,0.37 -5.84,0.14zm-99.14 -5.85c4.71,-9.36 19.99,-5.35 31.58,-3.67 9.68,1.42 21.63,3.95 23.96,16.53l-8.72 -0.03c-1.84,-11.27 -11.63,-12.47 -19.44,-13.95 -6.29,-1.2 -16.48,-4.13 -22.15,-2.01 -2.65,0.99 -3.5,2.19 -5.23,3.13zm0.21 -4.53c-2.9,2.72 -4.13,2.69 -8.74,1.97 -3.28,-0.51 -7.17,-0.86 -10.19,-1.58 4.29,-3.15 13.82,-1.52 18.93,-0.39zm-44.36 -0.04c-0.43,-10.76 10.01,-13.17 13.17,-5.01 -9.28,-4.61 -10.75,1.59 -13.17,5.01zm25.68 -52.78l0.13 44.93 -3.98 -0.32c-0.9,-3.54 -0.41,-29.58 -0.41,-36.77 0,-4.94 -1.46,-8.34 4.27,-7.83zm91.3 -13.26c4.31,-0.15 32.38,-1.92 34.56,-1.59 2.5,0.38 2.85,1.4 2.95,4.04 0.16,4.83 0.21,9.81 0.26,14.65 0.04,4.72 0.14,9.45 0.25,14.17 0.17,7.5 -0.24,6.53 3.42,11.46 1.62,2.19 1.56,2.11 1.53,5.47 -0.13,14.02 1.03,12.81 -9.57,12.96 -3.61,0.06 -7.54,-2.88 -10.17,-4.47 -3.15,-1.9 -8.71,-0.04 -12.6,0.54 -4.13,0.61 -8.31,1.26 -12.52,1.87 -2.06,0.3 -4.6,0.94 -5.43,-0.61 -0.78,-1.44 -0.63,-5.69 -0.09,-7.06 1.3,-3.33 4.35,-5.52 4.58,-9.98 1.09,-20.7 -3.3,-18.21 2.84,-41.45zm-106.93 33.59c0.58,1.87 0.5,4.51 0.02,6.44 -2.51,0.03 -1.87,-0.56 -1.87,-3.26 0,-2.59 -0.64,-3.36 1.85,-3.18zm-9.98 -4.86c-6.19,-0.04 -4.92,0.18 -4.7,-12.74 0.09,-5.37 1.65,-3.95 9.72,-3.97 6.89,-0.01 7.32,-1.5 6.68,12.33 -11.24,-0.2 -11.53,-0.83 -11.69,4.38zm-8.95 3.74l-6.4 0c-0.04,-3.75 1.65,0.15 2.34,-3.46l0.06 -12.56c-0.08,-1.16 -0.1,-1.38 -0.8,-1.99 -1.81,-1.6 -1.48,0.98 -1.57,-1.84 1.87,-0.76 4.96,-0.26 7.13,-0.28l-0.76 20.13zm102.07 33.44c-5.97,0.39 -5.6,-4.09 -5.6,-7.96l0 -57.61c0,-4.22 1.46,-6.26 5.64,-6.2 -2.76,2.05 -3.2,1.75 -3.2,6.62l0 58.47c-0.01,4.29 0.24,4.76 3.17,6.69zm-18.26 -2.09c-7.56,0.69 -5.61,-8.32 -5.61,-14.77l0 -40.67c0,-6.26 -1.83,-15.16 5.89,-14.14 -4.93,0.55 -3.41,10.44 -3.41,15.41l-0.01 47.45c-0.02,3.8 0.51,5.1 3.14,6.72zm-17.09 -2.75c-5.25,0.56 -5.88,-3.02 -5.88,-7.78l0 -52.53c0,-2.71 0.62,-6.65 4.08,-6.61 1.43,0.02 -1.07,-0.22 0.67,0.1l0.67 0.22c-4.23,1.66 -2.95,8.16 -2.95,15.6l0 36.43c0,4.82 -1.43,13.82 3.41,14.56zm-16.16 -2.67c-7.17,-0.09 -5.39,-7.04 -5.39,-13.59l0 -37.28c0,-6.4 -1.75,-13.58 5.66,-13.42 -4.44,3.19 -3.2,4.4 -3.2,14.26 0,5.2 -0.71,45 0.53,47.56l2.14 2.25c0.06,0.05 0.17,0.14 0.26,0.22zm119.64 -66c-1.21,-2.72 -2.64,-4 -6.54,-4.48 -0.4,-7.28 0.13,-6.89 4.08,-10.46 2.66,-2.4 4.96,-4.71 8.08,-7.4 -0.54,3.86 -3.39,14.16 -4.56,19.38l-1.07 2.96zm-43.02 -18.36l-6.32 0.04c0.78,-1.58 0.76,-1.21 2.01,-2.52 0.89,-0.93 1.23,-1.67 2.05,-2.61l4.61 -4.96 -2.35 10.05zm52.44 -14.8l-0.01 -23.6 3.8 -0.02c0.2,1.67 0.52,18.43 -0.17,20.01 -0.48,1.11 -2.63,3.14 -3.62,3.61zm-16.31 -27.59c0.91,4.56 -1.24,4.13 4.77,3.96 0.68,5.95 -0.8,23.23 0.54,27l7.4 0.39 -1.65 2.05c-0.69,0.65 -1.06,0.99 -1.73,1.61 -1.26,1.18 -2.23,2.09 -3.52,3.26 -5.72,5.23 -4,4.93 -9.44,4.8 -9.04,-0.22 -18.77,0.08 -27.69,-0.51 0.15,-3.23 2.31,-10.41 3.15,-14.13 0.96,-4.29 0.7,-3.28 2.81,-6.07 3.31,-4.38 16.22,-18 19.1,-21.98 1.02,-1.41 0.86,-1.35 2.29,-2.17 0.61,-1.55 9.25,-11.21 10.9,-13.02 1.28,-1.42 2.48,-2.93 3.85,-4.35l48.56 2.21 -20.58 21.71c-1.58,1.54 -2.59,2.3 -3.68,3.5 -0.73,0.81 -2.39,2.88 -3.34,3.47l-0.08 -7.69 4.36 -0.18 0.18 -4.05c-2.66,-0.93 -14.71,-0.38 -18.22,-0.38 -4.18,0 -15.18,-0.81 -17.98,0.56zm-44.17 16.73c-1.11,-0.61 -1.41,-1.05 -2.2,-1.79 0.61,-1.56 1.39,-2.33 2.5,-3.45l35.19 -41.07c0.55,-0.65 0.89,-0.9 1.44,-1.52 0.62,-0.72 0.82,-1.15 1.51,-1.89l5.92 -6.68c1.26,0.85 6.17,9 7.11,10.78 -1.46,-1.31 -5.49,-4.98 -6.87,-5.57 -1.34,2.61 -9.09,10.34 -10.94,12.78l-11.29 12.87c-3.81,3.85 -8.99,10.44 -12.51,14.18 -0.61,0.65 -0.87,0.73 -1.49,1.45 -0.54,0.61 -0.76,1.07 -1.29,1.69 -2.22,2.57 -5.33,5.4 -7.06,8.21zm38.74 -56.29l-7.17 8.2c-0.74,0.88 -1.18,1.09 -1.87,1.93 -0.89,1.07 -4.31,5.66 -5.26,5.77 -1.48,2.44 -12.72,14.92 -14.62,17.22l-14.84 16.86c-0.89,0.87 -1.48,1.54 -2.05,2.98 1.44,0.67 2.23,1.89 2.85,3.27 -2.09,1.11 -4.47,3.73 -6.62,5.3 -10.13,7.39 1.71,14.45 4.17,23.24 -1.87,1.59 -3.24,1.56 -4.57,4 0.06,3.17 3.03,5.51 3.81,8.32 -14.29,-0.04 -29.22,0.59 -43.54,1 -7.33,0.21 -14.69,0.35 -22.03,0.5 -8.89,0.19 -11.55,1.63 -11.46,10.93 -8.75,0.83 -18.35,-0.5 -26.66,1.76 -0.43,0.62 -3,1.69 -4.1,3.04 -0.87,1.06 -1.97,2.89 -2.57,4.52 -2,-0.03 -4.07,-0.06 -6.07,-0.05 -2.67,0.02 -3.07,0.06 -3.17,2.78 -3.31,1.34 -2.48,1.48 -2.48,8.72 0,7.22 -0.83,7.59 2.44,8.68 0.3,3.76 0.91,2.7 7.83,2.81 0.15,7.87 -0.57,16.16 -0.63,24.09 -0.09,11.87 -1.43,14.36 6.89,17.98 2.25,0.99 1.51,1.41 2.37,3.93 1.43,4.17 4.5,8.2 8.84,9.82 7.26,2.72 12.71,-2.15 16.06,-8.04 1.94,0.03 15.12,3.27 17.1,4.09 2.11,17.88 13.92,19.76 27.81,13.88 1.44,1.89 1.41,2.83 3.15,4.74 7.4,8.16 24.51,3.33 28.78,-1.78 2,-2.39 0.91,-2.01 4.8,-2.81 1.89,-0.4 4.54,-0.66 6.28,-1.44l2.76 -8.24c1.08,1.03 1.44,2.11 3.31,3.94 1.04,1.02 2.45,2.25 4.13,3.08 6.9,3.42 15.91,1.26 21.72,-3.2 5.44,-4.18 1.07,-3.69 9.97,-4.03l-0.48 -12.44c0.96,-1.22 1.73,-1.43 1.87,-3.37 0.4,-5.8 -2.74,-4.2 -8.86,-4.07l0.26 -6.34c4.97,0.06 13.4,1.5 14.57,-3.26 1.07,-4.34 -1.13,-46.25 0.86,-50.87 1.99,-11.11 6.72,-29.1 9.55,-41.61 0.82,-3.65 0.5,-3.08 2.4,-5.32 13.59,0.65 11.75,2.46 11.52,-11.04 1.09,-0.92 1.3,-1.27 2.34,-1.88 1.07,-2.48 14.07,-14.73 17.46,-18.38 2.89,-3.12 5.62,-6.2 8.62,-9.19 2.42,-2.4 7.26,-6.16 8.67,-9.02l-13.19 -21.54c-0.02,-0.15 -0.13,-0.17 -0.21,-0.36l-10.52 -0.4c-0.85,1.2 -1.11,1.63 -2.26,2.89l-30.55 -2.28 -2.9 -4.52c-10.34,-0.73 -8.28,-2.28 -14.52,5.23z"/>
   <path class="fil1" d="M213.96 40.63c4.16,-0.09 3.23,0.39 7.52,-4.67 0.67,-0.8 0.53,-0.26 0.74,-1.4 -3.01,0.02 -3.24,0.18 -4.97,1.83 -1.07,1.01 -2.55,2.69 -3.3,4.24z"/>
   <path class="fil1" d="M182.44 37.92c4.44,0.8 7.87,-4.61 8.2,-5.81 -3.25,-0.21 -3.52,0.04 -5.02,1.89 -0.89,1.09 -2.71,2.65 -3.18,3.93z"/>
  </g>
  <path class="fil0" d="M29.56 192.51c-0.04,-2.23 0.17,-0.07 -0.58,-1.07 0,0 -1.62,0.17 0,2.15 0.2,-0.19 0.6,0.3 0.58,-1.08z"/>
  <path class="fil0" d="M23.89 185.72c0.83,-1.22 0.86,-0.8 0,-2.09 -0.01,0.01 -0.84,-0.13 -0.72,1.19 0.12,1.35 0.43,0.69 0.72,0.91z"/>
  <path class="fil0" d="M26.93 194.66c-0.04,-1.68 -0.11,-0.41 -0.5,-0.95 -0.48,0.54 -0.64,-1.07 -0.55,1.27 0.05,1.3 0.41,0.67 0.55,0.82 0.19,-0.23 0.54,0.52 0.5,-1.14z"/>
  <path class="fil0" d="M24.35 192.51c-0.02,-1.99 0.06,-0.19 -0.46,-1.07 -1.34,1.15 -0.85,1.4 0,2.16 0.41,-0.5 0.47,0.2 0.46,-1.09z"/>
  <path class="fil0" d="M26.44 183.06c1.05,-1.21 0.8,-0.95 0,-2.09 -0.73,0.87 -0.53,-1.19 -0.57,0.96 -0.02,1.38 0.39,0.94 0.57,1.13z"/>
 </g>
</svg>
