<?xml version="1.0" encoding="UTF-8"?>
<!DOCTYPE svg PUBLIC "-//W3C//DTD SVG 1.1//EN" "http://www.w3.org/Graphics/SVG/1.1/DTD/svg11.dtd">
<!-- Creator: CorelDRAW 2021 (64-Bit) -->
<svg xmlns="http://www.w3.org/2000/svg" xml:space="preserve" width="0.300787in" height="0.300787in" version="1.1" style="shape-rendering:geometricPrecision; text-rendering:geometricPrecision; image-rendering:optimizeQuality; fill-rule:evenodd; clip-rule:evenodd"
viewBox="0 0 300.79 300.79"
 xmlns:xlink="http://www.w3.org/1999/xlink"
 xmlns:xodm="http://www.corel.com/coreldraw/odm/2003">
 <defs>
  <style type="text/css">
   <![CDATA[
    .str1 {stroke:#085B57;stroke-width:6.94;stroke-linecap:round;stroke-linejoin:round;stroke-miterlimit:2.61313}
    .str0 {stroke:white;stroke-width:6.94;stroke-linecap:round;stroke-linejoin:round;stroke-miterlimit:2.61313}
    .fil0 {fill:none}
   ]]>
  </style>
 </defs>
 <g id="Layer_x0020_1">
  <metadata id="CorelCorpID_0Corel-Layer"/>
  <line class="fil0 str0" x1="160.33" y1="109.92" x2="160.33" y2= "31.7" />
  <path class="fil0 str0" d="M160.33 87.71c-20.02,-7.57 -23.88,-26.8 -20.46,-44.7 3.12,-16.35 12.32,-31.59 20.83,-35.84 0,0 53.93,49.19 -0.37,80.54z"/>
  <polyline class="fil0 str0" points="140.74,39.09 160.33,52.35 177.67,32.11 "/>
  <polyline class="fil0 str0" points="138.87,57.5 160.33,74.38 183.04,49.41 "/>
  <path class="fil0 str1" d="M96.12 218.06c-6.25,-10.74 -9.24,-22.19 -9.24,-35.51 0,-40.17 32.57,-72.74 72.74,-72.74 40.17,0 72.74,32.57 72.74,72.74 0,34.54 -24.07,63.45 -56.34,70.89"/>
  <path class="fil0 str1" d="M119.3 122c0,0 -1.54,7.61 12.66,10.01 14.2,2.4 23.15,0 22.06,9.39 -1.09,9.39 -14.85,5.51 -20.31,12.15 -5.46,6.64 -8.52,7.95 0.87,11.66 9.39,3.71 15.07,4.59 18.79,12.89 3.71,8.3 1.96,8.3 -2.84,13.1 -4.81,4.8 -6.77,3.28 -3.28,11.36 3.49,8.08 6.56,16.17 -2.4,15.07 -8.96,-1.09 -13.98,-10.7 -14.64,-19.44 -0.65,-8.74 -4.37,-8.96 -9.17,-10.92 -4.81,-1.96 -6.55,-0.87 -3.71,-9.39 2.83,-8.52 3.06,-6.99 -5.9,-10.7 -8.95,-3.71 -8.3,-5.24 -10.92,-10.05 -2.62,-4.81 -4.6,-9.72 -4.6,-9.72"/>
  <path class="fil0 str1" d="M210.33 130.4c0,0 -13.72,3.36 -11.43,15.04 2.29,11.69 7.31,20.43 4.04,26.32 -3.28,5.9 -2.41,10.04 -1.09,14.2 1.31,4.15 -1.31,4.59 -7.86,4.59 -6.56,0 -10.05,1.75 -12.45,8.08 -2.4,6.33 -6.33,8.96 -1.09,16.16 5.24,7.21 9.83,11.37 13.76,7.65 3.93,-3.72 12.23,1.09 10.7,-6.77 -1.53,-7.87 -3.5,-5.03 7.21,-8.96 10.7,-3.93 17.15,-3.09 17.15,-3.09"/>
  <rect class="fil0 str1" x="24.76" y="226.53" width="44.79" height="72.97" rx="4.37" ry="4.37"/>
  <circle class="fil0 str1" cx="47.25" cy="250.22" r="9.18"/>
  <path class="fil0 str1" d="M69.55 234.81c0,0 15.15,-18.58 38.96,-17.27 23.82,1.31 37.37,12.24 47.42,13.77 10.05,1.53 21.82,6.55 20.31,22.07"/>
  <path class="fil0 str1" d="M69.55 289.5c0,0 32.19,-9.67 45.52,-2.9 13.33,6.78 29.94,7.87 57.92,0.88 27.98,-7 56.6,-21.85 71.24,-30.6 14.65,-8.74 27.32,-13.11 25.79,-27.32 -1.53,-14.2 -17.48,-18.14 -35.19,-5.03 -17.7,13.11 -49.21,29.3 -58.58,28.85"/>
 </g>
</svg>
