<?xml version="1.0" encoding="UTF-8"?>
<!DOCTYPE svg PUBLIC "-//W3C//DTD SVG 1.1//EN" "http://www.w3.org/Graphics/SVG/1.1/DTD/svg11.dtd">
<!-- Creator: CorelDRAW 2021 (64-Bit) -->
<svg xmlns="http://www.w3.org/2000/svg" xml:space="preserve" width="0.300787in" height="0.300787in" version="1.1" style="shape-rendering:geometricPrecision; text-rendering:geometricPrecision; image-rendering:optimizeQuality; fill-rule:evenodd; clip-rule:evenodd"
viewBox="0 0 300.79 300.79"
 xmlns:xlink="http://www.w3.org/1999/xlink"
 xmlns:xodm="http://www.corel.com/coreldraw/odm/2003">
 <defs>
  <style type="text/css">
   <![CDATA[
    .str1 {stroke:#085B57;stroke-width:12.72;stroke-linecap:round;stroke-miterlimit:2.61313}
    .str0 {stroke:white;stroke-width:12.72;stroke-linecap:round;stroke-miterlimit:2.61313}
    .fil0 {fill:none;fill-rule:nonzero}
   ]]>
  </style>
 </defs>
 <g id="Layer_x0020_1">
  <metadata id="CorelCorpID_0Corel-Layer"/>
  <g id="_2062736654032">
   <path class="fil0 str0" d="M40.06 175.68l-7.48 -7.48c-32.33,-32.32 -36.84,-89.24 -4.51,-121.56 32.32,-32.33 84.73,-32.33 117.06,0l2.27 2.28"/>
   <path class="fil0 str1" d="M143.13 56.33c32.33,-32.33 89.24,-36.83 121.57,-4.51 32.32,32.32 32.32,84.73 0,117.06"/>
   <path class="fil0 str1" d="M175.89 77.6l-31.88 31.91c-15.5,15.75 -39.81,15.75 -54.81,0.75l54.07 -54.08"/>
   <path class="fil0 str1" d="M74.77 199.14c-7.28,7.28 -19.08,6.96 -26.36,-0.31 -7.28,-7.28 -7.28,-19.08 0,-26.36l18.49 -18.5c7.28,-7.28 19.08,-6.96 26.36,0.31 7.28,7.28 7.28,19.08 0,26.36l-18.5 18.49z"/>
   <path class="fil0 str1" d="M101.39 225.75c-7.28,7.28 -19.08,6.96 -26.36,-0.31 -7.28,-7.28 -7.28,-19.08 0,-26.36l18.49 -18.49c7.28,-7.28 19.08,-6.96 26.36,0.31 7.28,7.28 7.28,19.08 0,26.36l-18.49 18.5z"/>
   <path class="fil0 str1" d="M128 252.36c-7.28,7.28 -19.08,6.96 -26.36,-0.31 -7.28,-7.28 -7.28,-19.09 0,-26.36l18.49 -18.5c7.28,-7.28 19.08,-6.96 26.36,0.32 7.28,7.28 7.28,19.08 0,26.36l-18.49 18.5z"/>
   <path class="fil0 str0" d="M204.9 212.84c7.28,7.28 6.96,19.08 -0.32,26.36 -7.28,7.28 -19.08,7.28 -26.36,0"/>
   <path class="fil0 str0" d="M176.48 131.2l55.02 55.03c7.28,7.28 6.96,19.08 -0.32,26.36 -7.28,7.28 -19.08,7.28 -26.35,0l-55.03 -55.02"/>
   <path class="fil0 str0" d="M176.42 77.93l81.7 81.7c7.28,7.28 6.96,19.08 -0.32,26.35 -7.28,7.28 -19.08,7.28 -26.36,0"/>
   <path class="fil0 str1" d="M154.61 278.97c-7.28,7.28 -19.08,6.96 -26.36,-0.32 -7.28,-7.28 -7.28,-19.08 0,-26.36l18.49 -18.5c7.28,-7.28 19.09,-6.96 26.36,0.32 7.28,7.28 7.28,19.08 0,26.36l-18.49 18.5z"/>
  </g>
 </g>
</svg>
