<?xml version="1.0" encoding="UTF-8"?>
<!DOCTYPE svg PUBLIC "-//W3C//DTD SVG 1.1//EN" "http://www.w3.org/Graphics/SVG/1.1/DTD/svg11.dtd">
<!-- Creator: CorelDRAW 2021 (64-Bit) -->
<svg xmlns="http://www.w3.org/2000/svg" xml:space="preserve" width="0.300787in" height="0.300787in" version="1.1" style="shape-rendering:geometricPrecision; text-rendering:geometricPrecision; image-rendering:optimizeQuality; fill-rule:evenodd; clip-rule:evenodd"
viewBox="0 0 300.79 300.79"
 xmlns:xlink="http://www.w3.org/1999/xlink"
 xmlns:xodm="http://www.corel.com/coreldraw/odm/2003">
 <defs>
  <style type="text/css">
   <![CDATA[
    .fil0 {fill:#085B57}
    .fil1 {fill:#B5D91F}
   ]]>
  </style>
 </defs>
 <g id="Layer_x0020_1">
  <metadata id="CorelCorpID_0Corel-Layer"/>
  <path class="fil0" d="M273.37 102.83l-7.76 7.76c5.15,13.76 7.76,28.31 7.76,43.05 0,67.91 -55.06,122.97 -122.97,122.97 -67.91,0 -122.97,-55.06 -122.97,-122.97 0,-67.91 55.06,-122.97 122.97,-122.97 15.1,0 30.01,2.74 44.06,8.14l7.73 -7.73c-16.35,-6.92 -33.91,-10.46 -51.8,-10.46 -73.47,0 -133.03,59.56 -133.03,133.03 0,73.47 59.56,133.03 133.03,133.03 73.47,0 133.03,-59.56 133.03,-133.03 0,-17.52 -3.4,-34.74 -10.06,-50.81zm-35.63 32.25c-2.12,0.59 -4.35,0.83 -6.61,0.78l-3.63 0c1.34,5.81 2.01,11.78 2.01,17.78 0,43.69 -35.43,79.12 -79.12,79.12 -43.69,0 -79.12,-35.43 -79.12,-79.12 0,-43.69 35.43,-79.12 79.12,-79.12 6.23,0 12.41,0.72 18.43,2.17l0 -0.69c0.13,-3.3 0.67,-6.44 1.67,-9.36 -6.58,-1.51 -13.32,-2.28 -20.1,-2.28 -49.31,0 -89.28,39.97 -89.28,89.28 0,49.31 39.97,89.28 89.28,89.28 49.31,0 89.28,-39.97 89.28,-89.28 0,-6.26 -0.65,-12.47 -1.94,-18.56zm-40.54 16.87l-25.28 25.28c-11.39,11.01 -25.15,12.46 -38.5,4.08l-0.25 -0.16 -0.24 -0.17c-15.69,-11.35 -19.24,-28.6 -7.39,-44.34l0.37 -0.48 28.74 -29.15c-1.41,-0.13 -2.83,-0.19 -4.26,-0.19 -25.87,0 -46.84,20.97 -46.84,46.84 0,25.87 20.97,46.84 46.84,46.84 25.87,0 46.84,-20.97 46.84,-46.84 0,-0.57 -0.01,-1.13 -0.03,-1.7z"/>
  <path class="fil1" d="M145.15 150.6l47.95 -48.08 0 -28.96 45.93 -45.93c3.91,-3.39 10.7,-0.61 10.57,4.48l0 23.73 21.82 0c5.52,-0.51 10.15,5.89 5.91,10.48l-45.16 45.16 -29.54 0 -48.2 48.75c-1.21,1.22 -2.89,1.98 -4.75,1.98 -3.69,0 -6.69,-2.99 -6.69,-6.68 0,-1.95 0.83,-3.7 2.17,-4.93l-0 0z"/>
 </g>
</svg>
