<?xml version="1.0" encoding="UTF-8"?>
<!DOCTYPE svg PUBLIC "-//W3C//DTD SVG 1.1//EN" "http://www.w3.org/Graphics/SVG/1.1/DTD/svg11.dtd">
<!-- Creator: CorelDRAW 2021 (64-Bit) -->
<svg xmlns="http://www.w3.org/2000/svg" xml:space="preserve" width="0.300787in" height="0.300787in" version="1.1" style="shape-rendering:geometricPrecision; text-rendering:geometricPrecision; image-rendering:optimizeQuality; fill-rule:evenodd; clip-rule:evenodd"
viewBox="0 0 300.79 300.79"
 xmlns:xlink="http://www.w3.org/1999/xlink"
 xmlns:xodm="http://www.corel.com/coreldraw/odm/2003">
 <defs>
  <style type="text/css">
   <![CDATA[
    .fil0 {fill:#085B57}
    .fil1 {fill:#B5D91F}
   ]]>
  </style>
 </defs>
 <g id="Layer_x0020_1">
  <metadata id="CorelCorpID_0Corel-Layer"/>
  <path class="fil0" d="M69.94 239.47l32.69 -0.01 -19.61 -64.54 -20.92 -0.01 7.85 64.56zm14.95 -17.31c4.21,0 7.63,3.41 7.63,7.63 0,4.21 -3.41,7.63 -7.63,7.63 -4.21,0 -7.63,-3.41 -7.63,-7.63 0,-4.21 3.41,-7.63 7.63,-7.63z"/>
  <path class="fil0" d="M147.45 20.74c-73.23,0 -132.59,59.36 -132.59,132.59 0,73.23 59.36,132.59 132.59,132.59 73.23,0 132.59,-59.36 132.59,-132.59 0,-73.23 -59.36,-132.59 -132.59,-132.59zm0 9.09c68.2,0 123.5,55.3 123.5,123.5 0,68.2 -55.3,123.5 -123.5,123.5 -68.2,0 -123.5,-55.3 -123.5,-123.5 0,-68.2 55.3,-123.5 123.5,-123.5z"/>
  <path class="fil1" d="M121.41 149.93l52.99 0.02c0.07,-5.8 0.02,-11.65 0.02,-17.46 0,-6.14 0.11,-10.61 -3.17,-14.7 -2.24,-2.79 -8.33,-7.11 -10.8,-5.04 -0.89,0.75 -1.06,1.22 -2.27,2.08 -3,2.12 -6.34,3.21 -10.28,3.15 -5.98,-0.09 -9.08,-2.65 -12.16,-5.22 -1.61,-1.35 -3.82,-0.36 -6.23,0.92 -7.48,3.97 -8.14,10.24 -8.14,18.41 0,5.93 -0.09,11.93 0.03,17.84z"/>
  <path class="fil1" d="M79.58 142.2l37 -0.03c1.22,-11.81 -1.94,-11.11 2.16,-24.23 -3.43,-1.41 -3.65,-2.37 -6.21,0 -3.9,3.61 -9.99,4.48 -15.02,2.78 -6.69,-2.27 -5.09,-6.97 -12.57,-2.07 -1.84,1.2 -3.28,2.8 -4.43,5.42 -1.37,3.13 -1.52,14.35 -0.93,18.13z"/>
  <path class="fil1" d="M177.02 117.89c4,11.55 1.11,12.92 2.19,24.2l36.99 0.1c0.46,-4.09 0.5,-14.62 -0.96,-18.02 -1.96,-4.56 -8.08,-9.13 -10.63,-7.01 -6.15,5.12 -14.8,6.47 -20.89,0.76 -0.93,-0.87 -1.23,-1.65 -2.95,-1.4 -1.16,0.18 -2.83,1.02 -3.74,1.37z"/>
  <path class="fil1" d="M145.34 67.52c-4.58,0.96 -7.11,3.21 -8.87,6.33 -2.63,4.66 -3.44,18.83 2.43,23.97 2.54,2.23 6.73,4.15 11.43,3.28 11.24,-2.07 10.81,-12.63 10.76,-19.76 -0.08,-8.76 -6.59,-15.74 -15.75,-13.81z"/>
  <path class="fil1" d="M191.69 77.31c-8.54,1.51 -9.61,7.37 -9.56,16.62 0.05,8.66 6.05,13.52 13.16,12.32 3.48,-0.59 6.32,-2.86 7.72,-5.22 2.03,-3.43 1.68,-6.96 1.65,-11.44 -0.06,-8.73 -6.35,-13.46 -12.96,-12.29z"/>
  <path class="fil1" d="M99.24 77.71c-7.68,2.23 -8.61,8.74 -8.13,17.81 0.64,11.94 16.22,14.87 21.33,4.64 1.56,-3.12 1.28,-7.94 1.15,-11.73 -0.24,-7.13 -6.49,-13 -14.35,-10.72z"/>
  <path class="fil0" d="M188.4 179.23c0.3,0.74 2.21,4.34 2.78,5.14 2.47,-0.8 12.37,-6.55 16.19,-8.56 1.19,-0.62 4.56,-2.23 5.43,-3.21 -6.37,-6.86 -14.8,3.16 -24.39,6.63z"/>
  <path class="fil0" d="M178.34 173.16c1.6,0.28 3,0.84 4.36,1.62 2.19,1.26 1.95,1.35 4.35,-0.02 2.33,-1.33 6.13,-3.01 7.97,-4.48 -3.94,-2.75 -8.7,-1.92 -12.84,0.39l-2.84 1.53c-0.93,0.69 -0.37,0.17 -1,0.96z"/>
  <path class="fil0" d="M91.5 186.36c0.94,4.06 9.16,31.63 10.38,33.48 2.32,-0.93 11.02,-7.09 14.34,-8.91 6.16,-3.39 13.18,-0.93 19.86,0.24 13.03,2.28 27.53,7.07 40.4,2.59 5.61,-1.95 22.66,-14.38 28.42,-18.4l27.91 -19.17c-2.69,-3.85 -8.15,-4.2 -12.98,-1.69 -3.9,2.03 -7.78,4.3 -11.52,6.19 -3.99,2.02 -7.68,4.05 -11.5,6.2 -6.06,3.41 -4.03,1.31 -4.85,4.13 -0.82,2.81 -4.37,1.8 -7.46,1.66 -8.69,-0.38 -17.4,-1.19 -26.06,-0.13 -2.48,0.3 -7.15,0.05 -4.68,-3.44 2.2,-3.11 28.06,-1.24 33.34,-1.05 -2.18,-12.31 -14.66,-10.81 -21.87,-10.81 -4.73,0 -11.33,0.37 -15.77,-0.24 -9.78,-1.35 -21.18,-12.24 -38.57,-3.69 -7.44,3.66 -8.18,6.59 -13.81,10.2 -0.77,0.49 -1.61,0.98 -2.53,1.4l-3.02 1.46z"/>
  <circle class="fil1" cx="84.89" cy="229.78" r="4.1"/>
 </g>
</svg>
