<?xml version="1.0" encoding="UTF-8"?>
<!DOCTYPE svg PUBLIC "-//W3C//DTD SVG 1.1//EN" "http://www.w3.org/Graphics/SVG/1.1/DTD/svg11.dtd">
<!-- Creator: CorelDRAW 2021 (64-Bit) -->
<svg xmlns="http://www.w3.org/2000/svg" xml:space="preserve" width="0.300787in" height="0.300787in" version="1.1" style="shape-rendering:geometricPrecision; text-rendering:geometricPrecision; image-rendering:optimizeQuality; fill-rule:evenodd; clip-rule:evenodd"
viewBox="0 0 300.79 300.79"
 xmlns:xlink="http://www.w3.org/1999/xlink"
 xmlns:xodm="http://www.corel.com/coreldraw/odm/2003">
 <defs>
  <style type="text/css">
   <![CDATA[
    .fil0 {fill:#085B57}
    .fil1 {fill:#B5D91F}
   ]]>
  </style>
 </defs>
 <g id="Layer_x0020_1">
  <metadata id="CorelCorpID_0Corel-Layer"/>
  <path class="fil0" d="M147.45 20.74c-73.23,0 -132.59,59.36 -132.59,132.59 0,73.23 59.36,132.59 132.59,132.59 73.23,0 132.59,-59.36 132.59,-132.59 0,-73.23 -59.36,-132.59 -132.59,-132.59zm0 9.09c68.2,0 123.5,55.3 123.5,123.5 0,68.2 -55.3,123.5 -123.5,123.5 -68.2,0 -123.5,-55.3 -123.5,-123.5 0,-68.2 55.3,-123.5 123.5,-123.5z"/>
  <path class="fil1" d="M144.14 105.87c26.04,0 47.14,21.11 47.14,47.15 0,26.04 -21.11,47.15 -47.14,47.15 -26.04,0 -47.15,-21.11 -47.15,-47.15 0,-26.04 21.11,-47.15 47.15,-47.15zm0 14.72c0.32,0 0.64,0 0.96,0.01 0.08,-0 0.16,-0.01 0.24,-0.01 2.09,0 3.8,1.7 3.8,3.8 0,2.09 -1.7,3.79 -3.8,3.79 -0.17,0 -0.34,-0.01 -0.51,-0.04l-0.01 0.06c-0.22,-0 -0.45,-0.01 -0.68,-0.01 -12.06,0 -22.11,8.6 -24.35,20l-0.07 -0.01c-0.47,1.56 -1.92,2.7 -3.63,2.7 -1.97,0 -3.59,-1.5 -3.77,-3.42 -0.22,-0.02 -0.06,-0.39 -0.01,-0.62 0.02,-0.37 0.1,-0.73 0.22,-1.07 3.29,-14.42 16.19,-25.19 31.61,-25.19zm0 9.69c12.55,0 22.73,10.18 22.73,22.73 0,12.56 -10.18,22.73 -22.73,22.73 -12.56,0 -22.73,-10.18 -22.73,-22.73 0,-12.56 10.18,-22.73 22.73,-22.73z"/>
  <path class="fil0" d="M144.14 138.79c7.86,0 14.23,6.37 14.23,14.23 0,7.86 -6.37,14.23 -14.23,14.23 -7.86,0 -14.23,-6.37 -14.23,-14.23 0,-7.86 6.37,-14.23 14.23,-14.23z"/>
  <path class="fil0" d="M109.08 194.92c-28.24,-8.98 -51.75,-23 -70.89,-41.69 22.38,-20.31 46.08,-33.67 70.89,-41.24 -24.41,23.84 -26.12,59.58 0,82.93z"/>
  <path class="fil0" d="M179.94 194.74c28.24,-8.98 51.75,-23 70.89,-41.69 -22.38,-20.31 -46.08,-33.67 -70.89,-41.24 24.41,23.84 26.12,59.58 0,82.93z"/>
 </g>
</svg>
