<?xml version="1.0" encoding="UTF-8"?>
<!DOCTYPE svg PUBLIC "-//W3C//DTD SVG 1.1//EN" "http://www.w3.org/Graphics/SVG/1.1/DTD/svg11.dtd">
<!-- Creator: CorelDRAW 2021 (64-Bit) -->
<svg xmlns="http://www.w3.org/2000/svg" xml:space="preserve" width="2.3752in" height="1.19448in" version="1.1" style="shape-rendering:geometricPrecision; text-rendering:geometricPrecision; image-rendering:optimizeQuality; fill-rule:evenodd; clip-rule:evenodd"
viewBox="0 0 2375.2 1194.48"
 xmlns:xlink="http://www.w3.org/1999/xlink"
 xmlns:xodm="http://www.corel.com/coreldraw/odm/2003">
 <defs>
  <style type="text/css">
   <![CDATA[
    .fil1 {fill:black;fill-rule:nonzero}
    .fil2 {fill:#4AAB3D;fill-rule:nonzero}
    .fil0 {fill:#1A1A1A;fill-rule:nonzero;fill-opacity:0.101961}
   ]]>
  </style>
 </defs>
 <g id="Layer_x0020_1">
  <metadata id="CorelCorpID_0Corel-Layer"/>
  <path class="fil0" d="M919.73 923.46c-25.43,0 -46.19,-6.95 -62.19,-21.05 -16,-14 -24,-34.76 -24,-62.1 0,-36.29 15.05,-81.62 45.24,-136.19 -80.38,3.81 -160.76,6.57 -241.15,8.38 -18.19,27.24 -35.81,54.67 -52.67,82.38 -3.05,4.48 -6.95,6.67 -11.72,6.67 -3.9,0 -7.52,-1.43 -10.67,-4.19 -3.14,-2.76 -4.76,-6.09 -4.76,-10 0,-2.67 0.85,-5.24 2.57,-7.81 14.09,-22.76 27.81,-44.76 41.05,-66.19 -61.62,1.33 -123.33,2.19 -185.33,2.57 -25.05,22.29 -48.38,38.67 -69.72,49.24 -21.43,10.48 -38.67,15.71 -51.91,15.71 -12.09,0 -21.05,-3.81 -26.95,-11.52 -5.81,-7.72 -8.76,-18.48 -8.76,-32.29 0,-6.67 0.76,-14 2.19,-22 -60.95,0 -107.81,-1.81 -140.48,-5.33 -32.67,-3.52 -48.95,-9.33 -48.95,-17.33 0,-9.43 20.19,-20.57 60.67,-33.33 40.48,-12.67 97.05,-27.14 169.81,-43.33 35.14,-57.91 71.91,-112.38 110.38,-163.62 38.38,-51.33 76.95,-98 115.62,-140.29 -15.43,-13.71 -34.1,-23.91 -55.91,-30.38 -21.91,-6.48 -45.43,-9.71 -70.76,-9.71 -38.29,0 -77.52,6.86 -117.62,20.57 -40.09,13.81 -77.81,32.86 -113.14,57.05 -35.33,24.29 -65.24,51.72 -89.53,82.19 -21.05,26.29 -36.57,53.62 -46.67,82.1 -10,28.38 -15.05,56.95 -15.05,85.62 0,37.05 7.81,72.29 23.43,105.72 15.62,33.52 37.05,62.29 64.38,86.29 27.24,24 57.62,40.57 91.05,49.91 48.38,14.67 102.67,22 162.95,22 69.91,0 145.05,-9.91 225.15,-29.81 28.28,-7.05 61.24,-17.91 98.95,-32.67 37.62,-14.67 72.48,-28.76 104.48,-42.1 1.72,-0.76 3.24,-1.14 4.76,-1.14 3.33,0 6.09,1.33 8.19,3.91 2.19,2.57 3.24,5.52 3.24,8.67 0,5.05 -2.38,8.57 -7.24,10.57 -28.09,11.72 -58.48,22.19 -91.24,31.43 -32.76,9.24 -72.76,19.62 -120,31.33 -80.57,20.09 -156.19,30.19 -226.86,30.19 -53.33,0 -103.14,-6.1 -149.43,-18.19 -46.19,-12.09 -86.29,-30.57 -120.19,-55.52 -34,-24.86 -58.67,-56 -74.09,-93.43 -11.15,-26.57 -16.76,-55.15 -16.76,-85.62 0,-35.05 6.95,-70 20.76,-104.95 13.9,-34.95 32.57,-66.76 56,-95.43 28.95,-35.33 63.81,-65.53 104.29,-90.57 40.57,-24.95 82.95,-43.52 126.95,-55.62 40.95,-11.33 80,-17.05 117.24,-17.05 52.09,0 92.67,11.52 121.62,34.57 54.38,-56.86 103.81,-100.19 148.48,-129.81 44.67,-29.72 80.76,-44.57 108.48,-44.57 19.05,0 33.91,7.33 44.86,21.91 10.85,14.67 16.28,34.57 16.28,59.91 0,33.81 -12.19,81.72 -36.57,143.53 -24.38,61.91 -57.52,131.53 -99.62,208.86 16.76,-0.57 25.15,-0.86 25.15,-0.86 132.29,-134.48 280.48,-248.29 444.77,-341.53 52.86,-30.28 100.86,-56.48 144.1,-78.48 43.24,-22.09 86.67,-41.43 130.19,-57.91 1.33,-0.57 2.67,-0.86 4.19,-0.86 2.76,0 5.05,1.05 6.86,3.24 1.71,2.09 2.57,4.57 2.57,7.33 0,4.48 -2.09,7.52 -6.38,9.24 -6.09,2.19 -15.24,8.57 -27.33,18.95 -12.09,10.38 -30,26.19 -53.62,47.43 -74.95,68.48 -147.33,138.96 -217.34,211.34 -69.91,72.48 -130.19,141.05 -180.76,205.81 29.91,9.33 56.19,22.57 78.76,39.91 22.67,17.33 38,39.05 46.19,65.24 46.38,-2.76 93.33,-5.81 140.96,-9.15 14.09,-0.95 25.81,-2.85 35.14,-5.71 9.24,-2.86 16.86,-5.52 22.57,-8 5.81,-2.38 11.52,-3.62 17.33,-3.62 3.91,0 6.95,1.05 9.24,3.24 2.19,2.09 3.33,4.67 3.33,7.62 0,2.86 -1.14,5.33 -3.24,7.62 -2.19,2.19 -5.14,3.43 -9.05,3.62 -62.38,4.57 -133.62,9.43 -213.72,14.48 1.62,8.19 2.48,16.67 2.48,25.43 0,25.43 -6.29,50.67 -18.95,75.72 -12.67,25.05 -29.53,47.43 -50.67,67.33 -21.14,19.9 -44.19,35.71 -69.24,47.24 -24.95,11.52 -49.24,17.24 -72.67,17.24zm-226.57 -308c15.81,-17.72 32.67,-35.81 50.57,-54.38l-20.38 0.76c-9.52,17.33 -19.52,35.24 -30.19,53.62zm-159.53 -43.81c58.19,-8.57 111.81,-14.57 160.96,-18.19 44.48,-80.86 79.24,-152.67 104.38,-215.53 25.05,-62.76 37.62,-109.81 37.62,-141.33 0,-17.81 -3.81,-31.05 -11.43,-39.62 -7.62,-8.48 -18.48,-12.76 -32.67,-12.76 -13.91,0 -30.38,3.91 -49.33,11.81 -18.95,7.91 -39.24,18.95 -60.67,33.24 -21.52,14.19 -43.24,30.67 -65.14,49.33 -22,18.76 -42.86,38.67 -62.57,59.91 25.91,24 38.76,55.91 38.76,95.72 0,28.29 -5.71,57.91 -17.24,88.86 -11.53,30.95 -25.81,60.48 -42.67,88.57zm-217.72 41.05c68.86,-15.33 133.24,-27.62 193.15,-37.14 16,-28.1 29.43,-57.15 40.48,-87.05 10.95,-30 16.38,-58.48 16.38,-85.72 0,-34.38 -10.09,-62.28 -30.38,-83.62 -37.33,40.48 -74.76,85.52 -112,135.15 -37.33,49.52 -73.14,102.38 -107.62,158.38zm-52.67 92.29c5.52,-24.19 16.1,-49.91 31.52,-77.24 -48.76,11.52 -84.57,20.29 -107.62,26.19 -22.95,6 -40.67,11.43 -53.15,16.48 -12.48,5.05 -18.67,9.91 -18.67,14.48 0,11.52 49.33,18.28 147.91,20.09zm46.29 58.38c10.76,0 24.09,-3.91 39.91,-11.72 15.81,-7.81 32.57,-19.71 50.19,-35.71 -54.48,0 -95.43,-0.19 -122.76,-0.57l-0.29 6.38c0,13.05 2.86,23.24 8.38,30.57 5.62,7.33 13.81,11.05 24.57,11.05zm34.86 -57.52c15.43,0 37.52,-0.1 66.19,-0.29 33.24,-32.76 63.91,-72.48 92,-119.15 -59.72,9.91 -124.38,22.57 -194.19,38.29 -7.81,12.95 -14.48,27.14 -19.91,42.48 -5.52,15.33 -8.95,28.09 -10.48,38.1 19.14,0.38 41.33,0.57 66.38,0.57zm82.86 -0.29c72.57,-0.57 132.76,-1.33 180.57,-2.48 29.71,-48.95 56.86,-95.33 81.14,-139.24 -50,3.52 -104,9.72 -162.09,18.67 -30.1,47.43 -63.33,88.48 -99.62,123.05zm217.72 -3.33c70.86,-1.71 150.86,-4.57 239.91,-8.67 22.67,-39.05 47.91,-76.67 75.62,-112.67 -25.71,-6.95 -53.81,-12 -84.57,-15.33 -30.67,-3.43 -62.38,-5.05 -95.15,-5.05l-21.14 0.29c-40.57,43.52 -78.86,90.67 -114.67,141.43zm282.86 209.53c25.91,0 53.05,-8.38 81.52,-25.05 28.48,-16.76 52.57,-39.52 72.48,-68.09 19.91,-28.67 29.91,-58.86 29.91,-90.48 0,-12.57 -1.81,-24.67 -5.33,-36.19 -70.86,4.28 -135.43,7.81 -193.62,10.57 -33.81,58.19 -50.76,105.62 -50.76,142.29 0,22.29 6,39.05 18,50.19 12,11.24 27.91,16.76 47.81,16.76zm-8.67 -219.81c59.24,-2.86 120.48,-6.19 183.91,-10.09 -15.62,-40 -53.33,-70.57 -113.24,-91.81 -28.29,37.05 -51.81,70.95 -70.67,101.91zm51.62 -124.76c47.24,-61.24 104.38,-127.05 171.33,-197.53 66.95,-70.48 133.91,-136.86 200.96,-198.96 11.52,-10.57 17.24,-17.62 17.24,-20.95 0,-1.62 -1.24,-2.48 -3.9,-2.48 -9.81,0 -34.86,10.1 -74.86,30.29 -40.1,20.19 -66.19,33.81 -78.29,40.86 -80.76,46.09 -158.39,97.33 -232.96,153.72 -74.67,56.38 -141.62,115.72 -200.96,178l24 -0.29c67.53,0 126.67,5.81 177.43,17.33zm299.43 -3.91c-11.91,0 -21.14,-3.81 -27.62,-11.43 -6.48,-7.62 -9.72,-17.14 -9.72,-28.48 0,-18.38 6.09,-37.62 18.19,-57.72 12.19,-20.09 27.43,-36.85 45.52,-50.28 18.09,-13.33 35.24,-20.1 51.24,-20.1 18.19,0 33.71,8.19 46.57,24.57 1.62,2.28 2.48,4.67 2.48,7.24 0,3.24 -1.24,6 -3.72,8.38 -2.57,2.48 -5.33,3.62 -8.57,3.62 -2.95,0 -6.09,-1.62 -9.33,-4.95 -3.24,-3.43 -7.15,-6.76 -11.72,-10.09 -4.57,-3.33 -9.91,-5.05 -16,-5.05 -9.33,0 -19.33,3.62 -30,10.67 -10.76,7.05 -20.76,16 -30,26.76 -13.24,15.43 -23.43,29.91 -30.57,43.52 -7.15,13.62 -10.76,25.05 -10.76,34.29 0,6.76 2,12.09 6,16.19 4,4.09 9.91,6.19 17.71,6.19 16.38,0 34.1,-10.48 53.05,-31.24 -3.91,0.38 -7.62,0.48 -11.15,0.48 -21.62,0 -32.09,-8.29 -31.52,-25.05 0,-9.33 2.76,-19.52 8.48,-30.67 5.72,-11.24 12.95,-20.67 21.72,-28.38 8.86,-7.71 17.81,-11.52 26.67,-11.52 7.43,0 13.72,2.57 18.86,7.91 5.14,5.33 7.71,12.48 7.71,21.62 0,6.67 -1.71,14.57 -5.24,23.62 -3.43,8.95 -8.76,18.57 -16,28.57 22.67,-3.14 49.24,-12.76 79.52,-28.76 30.29,-16 59.72,-34.48 88.19,-55.52 0.57,-0.38 1.14,-0.57 1.91,-0.57 1.91,0 3.05,1.24 3.62,3.62 0,1.15 -0.48,2 -1.33,2.57 -17.52,12.67 -35.43,24.67 -53.71,36.1 -18.38,11.43 -39.15,22.48 -62.38,33.05 -23.24,10.67 -44.95,17.72 -65.05,21.24 -21.71,26.38 -42.76,39.62 -63.05,39.62zm63.05 -50.48c8,-10.48 14,-20.38 17.91,-29.72 3.91,-9.43 5.81,-17.33 5.81,-23.91 0,-8.38 -2.95,-12.67 -8.86,-12.85 -5.05,0 -10.86,3.14 -17.33,9.43 -6.48,6.19 -12.19,13.43 -16.85,21.71 -4.76,8.29 -7.15,15.14 -7.15,20.57 0,9.81 7.62,14.76 22.86,14.76l3.62 0zm227.15 -140.96c-5.62,0 -8.57,-3.24 -8.95,-9.71 0,-5.43 2.48,-10.86 7.24,-16.38 4.86,-5.43 10.09,-8.19 15.62,-8.19 5.81,0 8.76,3.24 8.95,9.71 0,5.62 -2.48,11.14 -7.43,16.48 -4.86,5.43 -10,8.09 -15.43,8.09zm-74.19 185.62c-14.95,0 -22.38,-7.24 -22.38,-21.52 0,-12.09 5.43,-30.95 16.19,-56.48 10.76,-25.62 22.38,-49.81 34.57,-72.76 3.91,-6.85 9.05,-10.28 15.43,-10.28 3.91,0 7.33,1.52 10.38,4.48 3.14,2.95 4.67,6.48 4.67,10.57 0,2.09 -1.43,5.52 -4.38,10.48 -2.86,4.95 -8.29,13.52 -16.29,25.81 -8,12.29 -14.76,23.15 -20.38,32.67 -5.52,9.52 -10.28,19.14 -14.19,28.86 -3.91,9.81 -5.91,18.38 -5.91,25.81 0,8.95 3.81,13.43 11.43,13.43 8,0 20.95,-5.05 38.76,-15.05 30,-16.57 81.05,-51.43 153.24,-104.67 0.76,-0.57 1.43,-0.86 1.9,-0.86 2.1,0 3.33,1.24 3.72,3.62 0,1.14 -0.48,2.09 -1.43,2.86 -59.91,44 -105.52,75.52 -136.76,94.57 -31.24,18.95 -54.09,28.48 -68.57,28.48zm212.57 20.29c-5.43,0 -9.71,-0.95 -13.14,-2.86 -3.33,-2 -4.95,-4.67 -4.95,-8 0,-5.71 4,-11.43 12.09,-17.14 8.09,-5.72 22.57,-12.95 43.43,-21.91 -1.71,-6.29 -7.33,-15.33 -16.95,-27.05 -9.52,-11.72 -18.57,-23.91 -27.14,-36.48 -8.57,-12.48 -12.86,-23.52 -12.86,-33.05 0,-8.85 3.71,-16 11.05,-21.14 7.33,-5.24 20.29,-7.81 38.86,-7.81 17.14,0 38.67,2.38 64.48,7.24 2.76,1.24 5.05,3.14 6.67,5.71 1.71,2.48 2.57,5.24 2.57,8.19 0,4.28 -1.52,7.91 -4.48,10.95 -2.95,2.95 -6.57,4.38 -10.86,4.38 -2.29,0 -4.29,-0.29 -6.19,-1.05 -11.15,-6.95 -22,-12.19 -32.57,-15.9 -10.67,-3.72 -19.91,-5.62 -27.91,-5.62 -7.52,0 -13.33,1.62 -17.52,4.86 -4.19,3.33 -6.19,8.09 -6.19,14.38 0,7.43 3.05,16.95 9.33,28.38 6.19,11.43 15.9,24.57 29.14,39.43 5.33,6.38 9.62,12.76 12.86,19.24 39.05,-16.38 72.19,-31.52 99.52,-45.62 27.43,-14 52.95,-30.38 76.76,-48.95 0.76,-0.57 1.52,-0.86 2.29,-0.86 1.81,0 2.95,1.24 3.33,3.62 0,0.95 -0.48,1.81 -1.43,2.57 -24.19,18.76 -50.19,35.33 -78.09,49.81 -27.91,14.38 -61.24,29.72 -99.91,45.91 1.14,3.15 1.71,6.19 1.71,9.15 0,6.76 -2.86,13.14 -8.57,19.14 -5.62,6.09 -12.67,10.95 -21.05,14.76 -8.38,3.81 -16.48,5.71 -24.29,5.71zm-9.24 -10c2.85,0 7.81,-1.62 14.95,-4.76 7.14,-3.14 13.9,-7.24 20.09,-12.09 6.28,-4.95 9.91,-10.09 11.05,-15.52 -32,14.09 -48,24.48 -48,30.95 0,0.95 0.67,1.43 1.91,1.43zm199.52 21.24c-10.29,0 -17.91,-2.57 -22.95,-7.71 -4.95,-5.14 -7.52,-12.86 -7.52,-23.33 0,-12.38 3.43,-27.33 10.38,-44.57 6.85,-17.33 15.81,-34.48 26.85,-51.52 11.15,-17.05 22.76,-31.52 35.05,-43.62 12.28,-12.09 24.09,-20 35.43,-23.71 2.28,-0.57 4.38,-0.86 6.48,-0.86 6.85,0 12.38,2.48 16.67,7.52 4.29,5.05 6.48,11.81 6.48,20.38 0,13.71 -4.29,28.76 -12.86,44.86 -8.57,16.19 -19.05,29.91 -31.43,41.24 -12.28,11.24 -23.62,16.85 -33.91,16.85 -6.48,0 -11.71,-2.19 -15.71,-6.48 -4,-4.19 -6,-10.38 -6,-18.38l0 -1.14c-7.62,12.86 -13.81,25.24 -18.38,37.15 -4.67,11.9 -7.05,21.71 -7.05,29.62 0,6.29 1.52,10.67 4.48,13.24 2.95,2.47 7.62,3.71 14,3.71 16.86,0 39.43,-6.86 67.62,-20.67 28.19,-13.72 57.91,-32.57 89.15,-56.48 31.24,-23.91 59.81,-50.09 85.72,-78.48 0.67,-0.76 1.52,-1.14 2.48,-1.14 1.81,0 2.95,1.14 3.33,3.33 0,0.95 -0.28,1.71 -0.85,2.19 -26,29.05 -54.95,55.62 -86.86,79.81 -31.91,24.19 -62.29,43.24 -91.15,57.24 -28.86,13.9 -52,20.95 -69.43,20.95zm31.24 -84.86c3.71,0 9.62,-3.9 17.81,-11.71 8.19,-7.81 15.91,-17.52 23.15,-29.14 7.33,-11.62 11.9,-23.15 13.71,-34.48 0.57,-3.15 0.86,-5.81 0.86,-7.81 0,-4.67 -1.43,-6.95 -4.19,-6.95 -4.67,0 -11.81,4.67 -21.52,14.09 -9.62,9.33 -19.43,20.48 -29.24,33.33 1.81,1.81 2.76,4.19 2.76,6.95 0,1.33 -0.19,2.48 -0.57,3.62 -4.48,11.52 -6.67,20.09 -6.67,25.72 0,4.19 1.24,6.38 3.91,6.38zm223.15 73.62c-5.43,0 -9.71,-0.95 -13.14,-2.86 -3.33,-2 -4.95,-4.67 -4.95,-8 0,-5.71 4,-11.43 12.09,-17.14 8.09,-5.72 22.57,-12.95 43.43,-21.91 -1.71,-6.29 -7.33,-15.33 -16.95,-27.05 -9.52,-11.72 -18.57,-23.91 -27.14,-36.48 -8.57,-12.48 -12.86,-23.52 -12.86,-33.05 0,-8.85 3.71,-16 11.05,-21.14 7.33,-5.24 20.29,-7.81 38.86,-7.81 17.14,0 38.67,2.38 64.48,7.24 2.76,1.24 5.05,3.14 6.67,5.71 1.71,2.48 2.57,5.24 2.57,8.19 0,4.28 -1.52,7.91 -4.48,10.95 -2.95,2.95 -6.57,4.38 -10.86,4.38 -2.29,0 -4.29,-0.29 -6.19,-1.05 -11.15,-6.95 -22,-12.19 -32.57,-15.9 -10.67,-3.72 -19.91,-5.62 -27.91,-5.62 -7.52,0 -13.33,1.62 -17.52,4.86 -4.19,3.33 -6.19,8.09 -6.19,14.38 0,7.43 3.05,16.95 9.33,28.38 6.19,11.43 15.9,24.57 29.14,39.43 5.33,6.38 9.62,12.76 12.86,19.24 39.05,-16.38 72.19,-31.52 99.52,-45.62 27.43,-14 52.95,-30.38 76.76,-48.95 0.76,-0.57 1.52,-0.86 2.29,-0.86 1.81,0 2.95,1.24 3.33,3.62 0,0.95 -0.48,1.81 -1.43,2.57 -24.19,18.76 -50.19,35.33 -78.09,49.81 -27.91,14.38 -61.24,29.72 -99.91,45.91 1.14,3.15 1.71,6.19 1.71,9.15 0,6.76 -2.86,13.14 -8.57,19.14 -5.62,6.09 -12.67,10.95 -21.05,14.76 -8.38,3.81 -16.48,5.71 -24.29,5.71zm-9.24 -10c2.85,0 7.81,-1.62 14.95,-4.76 7.14,-3.14 13.9,-7.24 20.09,-12.09 6.28,-4.95 9.91,-10.09 11.05,-15.52 -32,14.09 -48,24.48 -48,30.95 0,0.95 0.67,1.43 1.91,1.43z"/>
  <path class="fil1" d="M154.43 406.66c1.57,0 2.86,0.46 3.86,1.39 1,0.93 1.5,2.25 1.5,3.97l0 138.8c0,1.57 -0.5,2.79 -1.5,3.65 -1,1 -2.29,1.5 -3.86,1.5l-27.24 0c-1.43,0 -2.69,-0.54 -3.76,-1.61 -1.07,-1.07 -1.61,-2.25 -1.61,-3.54l0 -73.37c0,-0.72 -0.36,-1.07 -1.07,-1.07 -0.43,0 -0.79,0.15 -1.07,0.43l-20.81 38.41c-1.86,3.29 -4.36,4.93 -7.51,4.93l-11.58 0c-3,0 -5.51,-1.65 -7.51,-4.93l-20.6 -38.19c-0.28,-0.43 -0.64,-0.65 -1.07,-0.65 -0.72,0 -1.07,0.36 -1.07,1.07l0 73.37c0,1.43 -0.57,2.65 -1.72,3.65 -1,1 -2.29,1.5 -3.86,1.5l-27.03 0c-1.57,0 -2.86,-0.5 -3.86,-1.5 -1,-0.86 -1.5,-2.07 -1.5,-3.65l0 -126.36c0,-3 0.65,-5.65 1.93,-7.94 1.29,-2.29 2.86,-4.15 4.72,-5.58 1.86,-1.43 3.79,-2.5 5.79,-3.22 2,-0.72 3.72,-1.07 5.15,-1.07l12.01 0c3.43,0 6.01,1.5 7.72,4.5l35.61 64.15c0.14,0.43 0.5,0.64 1.07,0.64 0.43,0 0.79,-0.21 1.07,-0.64l35.83 -64.15c1.72,-3 4.29,-4.5 7.72,-4.5l24.24 0zm96.76 151.46c-20.31,0 -36.33,-4.93 -48.06,-14.8 -11.73,-9.87 -17.95,-24.39 -18.67,-43.55 -0.14,-4 -0.21,-10.15 -0.21,-18.45 0,-8.3 0.07,-14.52 0.21,-18.67 0.57,-18.88 6.83,-33.43 18.77,-43.66 11.94,-10.23 27.93,-15.34 47.95,-15.34 19.88,0 35.79,5.11 47.74,15.34 11.94,10.22 18.2,24.78 18.77,43.66 0.28,8.3 0.43,14.52 0.43,18.67 0,4.29 -0.15,10.44 -0.43,18.45 -0.72,19.17 -6.9,33.68 -18.56,43.55 -11.66,9.87 -27.64,14.8 -47.95,14.8zm0 -32.18c7.44,0 13.37,-2.25 17.81,-6.76 4.43,-4.51 6.8,-11.41 7.08,-20.7 0.29,-8.3 0.43,-14.23 0.43,-17.81 0,-3.57 -0.14,-9.37 -0.43,-17.38 -0.28,-9.3 -2.65,-16.2 -7.08,-20.7 -4.43,-4.5 -10.37,-6.76 -17.81,-6.76 -7.58,0 -13.59,2.26 -18.02,6.76 -4.43,4.5 -6.8,11.41 -7.08,20.7 -0.15,4.01 -0.22,9.8 -0.22,17.38 0,7.72 0.07,13.66 0.22,17.81 0.28,9.3 2.65,16.2 7.08,20.7 4.43,4.5 10.44,6.76 18.02,6.76zm91.18 24.24l0 -125.5c0,-5.44 1.86,-9.91 5.58,-13.41 3.72,-3.5 8.08,-5.26 13.09,-5.26l17.17 0c1.72,0 3,0.5 3.86,1.5 1,1 1.5,2.29 1.5,3.86l0 138.81c0,1.43 -0.5,2.65 -1.5,3.65 -0.85,1.15 -2.14,1.72 -3.86,1.72l-30.46 0c-1.43,0 -2.68,-0.54 -3.76,-1.61 -1.07,-1.07 -1.61,-2.32 -1.61,-3.75zm192.44 -39.69c0,8.72 -2.04,16.09 -6.11,22.09 -4.07,6.01 -9.26,10.87 -15.56,14.59 -6.29,3.72 -13.3,6.4 -21.02,8.04 -7.72,1.65 -15.23,2.47 -22.53,2.47 -7.01,0 -14.26,-0.72 -21.78,-2.15 -7.51,-1.43 -14.41,-3.83 -20.7,-7.19 -6.3,-3.36 -11.55,-7.8 -15.77,-13.3 -4.22,-5.51 -6.54,-12.33 -6.97,-20.49 0,-1.29 0.46,-2.36 1.39,-3.22 0.93,-0.86 2.04,-1.29 3.33,-1.29l28.53 0c0.86,0 1.61,0.07 2.25,0.21 0.65,0.15 1.25,0.36 1.82,0.65 1,0.57 2.22,1.57 3.65,3 2.29,4.57 5.69,7.69 10.19,9.33 4.5,1.65 9.19,2.47 14.05,2.47 2.15,0 4.61,-0.15 7.4,-0.43 2.79,-0.29 5.37,-0.89 7.72,-1.83 2.36,-0.93 4.4,-2.29 6.11,-4.07 1.72,-1.79 2.57,-4.11 2.57,-6.97 0,-3.86 -1.43,-6.65 -4.29,-8.37 -2.86,-1.72 -5.86,-3.07 -9.01,-4.07 -2.43,-0.86 -5.33,-1.68 -8.69,-2.47 -3.36,-0.79 -7.26,-1.61 -11.69,-2.47 -6.58,-1.29 -12.94,-2.97 -19.09,-5.04 -6.15,-2.07 -11.62,-4.83 -16.41,-8.26 -4.79,-3.43 -8.65,-7.76 -11.58,-12.98 -2.93,-5.22 -4.4,-11.62 -4.4,-19.2 0,-9.44 2.61,-17.56 7.83,-24.35 5.22,-6.79 12.05,-11.98 20.49,-15.56 9.15,-3.72 19.67,-5.57 31.54,-5.57 4.72,0 9.62,0.39 14.7,1.18 5.07,0.79 10.01,2.07 14.8,3.86 4.79,1.79 9.26,4.15 13.41,7.08 4.15,2.93 7.72,6.47 10.73,10.62 4.86,6.29 7.51,12.66 7.94,19.09 0,1.14 -0.46,2.22 -1.39,3.22 -0.93,1 -1.97,1.5 -3.11,1.5l-30.04 0c-3,0 -5.36,-1.29 -7.08,-3.86 -0.86,-3 -3.07,-5.58 -6.65,-7.72 -3.86,-2 -8.3,-3 -13.3,-3 -2.15,0 -4.33,0.14 -6.54,0.43 -2.22,0.29 -4.26,0.93 -6.11,1.93 -1.86,1 -3.36,2.33 -4.5,3.97 -1.15,1.65 -1.72,3.76 -1.72,6.33 0,4 2.15,7.22 6.43,9.65 4.29,2.29 12.3,4.65 24.03,7.08 6.72,1.29 13.41,2.83 20.06,4.61 6.65,1.79 12.55,4.33 17.7,7.61 5.15,3.29 9.33,7.55 12.55,12.77 3.22,5.22 4.83,11.91 4.83,20.06zm21.24 39.69l0 -125.5c0,-5.44 1.86,-9.91 5.58,-13.41 3.72,-3.5 8.08,-5.26 13.09,-5.26l87.53 0c1.57,0 2.9,0.54 3.97,1.61 1.07,1.07 1.61,2.39 1.61,3.97l0 21.24c0,1.57 -0.5,2.79 -1.5,3.65 -1,1 -2.36,1.5 -4.08,1.5l-79.16 0c3.43,0 6.26,1.22 8.47,3.65 2.22,2.43 3.33,5.07 3.33,7.94l0 9.01c0,1.57 0.54,3.07 1.61,4.5 1.07,1.43 2.68,2.15 4.83,2.15l46.77 0c1.57,0 2.9,0.54 3.97,1.61 1.07,1.07 1.61,2.39 1.61,3.97l0 19.31c0,1.57 -0.54,2.9 -1.61,3.97 -1.07,1.07 -2.39,1.61 -3.97,1.61l-65 0c3.29,0 6.08,1.14 8.37,3.43 2.29,2.29 3.43,4.86 3.43,7.72l0 10.08c0,1.57 0.57,3.08 1.72,4.51 1.15,1.43 2.72,2.15 4.72,2.15l62.64 0c3.72,0 5.58,1.86 5.58,5.58l0 21.02c0,1.72 -0.54,3.04 -1.61,3.97 -1.07,0.93 -2.4,1.39 -3.97,1.39l-102.55 0c-1.43,0 -2.68,-0.54 -3.75,-1.61 -1.07,-1.07 -1.61,-2.32 -1.61,-3.75zm259.37 -39.69c0,8.72 -2.04,16.09 -6.11,22.09 -4.07,6.01 -9.26,10.87 -15.56,14.59 -6.29,3.72 -13.3,6.4 -21.02,8.04 -7.72,1.65 -15.23,2.47 -22.53,2.47 -7.01,0 -14.26,-0.72 -21.78,-2.15 -7.51,-1.43 -14.41,-3.83 -20.7,-7.19 -6.3,-3.36 -11.55,-7.8 -15.77,-13.3 -4.22,-5.51 -6.54,-12.33 -6.97,-20.49 0,-1.29 0.46,-2.36 1.39,-3.22 0.93,-0.86 2.04,-1.29 3.33,-1.29l28.53 0c0.86,0 1.61,0.07 2.25,0.21 0.65,0.15 1.25,0.36 1.82,0.65 1,0.57 2.22,1.57 3.65,3 2.29,4.57 5.69,7.69 10.19,9.33 4.5,1.65 9.19,2.47 14.05,2.47 2.15,0 4.61,-0.15 7.4,-0.43 2.79,-0.29 5.37,-0.89 7.72,-1.83 2.36,-0.93 4.4,-2.29 6.11,-4.07 1.72,-1.79 2.57,-4.11 2.57,-6.97 0,-3.86 -1.43,-6.65 -4.29,-8.37 -2.86,-1.72 -5.86,-3.07 -9.01,-4.07 -2.43,-0.86 -5.33,-1.68 -8.69,-2.47 -3.36,-0.79 -7.26,-1.61 -11.69,-2.47 -6.58,-1.29 -12.94,-2.97 -19.09,-5.04 -6.15,-2.07 -11.62,-4.83 -16.41,-8.26 -4.79,-3.43 -8.65,-7.76 -11.58,-12.98 -2.93,-5.22 -4.4,-11.62 -4.4,-19.2 0,-9.44 2.61,-17.56 7.83,-24.35 5.22,-6.79 12.05,-11.98 20.49,-15.56 9.15,-3.72 19.67,-5.57 31.54,-5.57 4.72,0 9.62,0.39 14.7,1.18 5.07,0.79 10.01,2.07 14.8,3.86 4.79,1.79 9.26,4.15 13.41,7.08 4.15,2.93 7.72,6.47 10.73,10.62 4.86,6.29 7.51,12.66 7.94,19.09 0,1.14 -0.46,2.22 -1.39,3.22 -0.93,1 -1.97,1.5 -3.11,1.5l-30.04 0c-3,0 -5.36,-1.29 -7.08,-3.86 -0.86,-3 -3.07,-5.58 -6.65,-7.72 -3.86,-2 -8.3,-3 -13.3,-3 -2.15,0 -4.33,0.14 -6.54,0.43 -2.22,0.29 -4.26,0.93 -6.11,1.93 -1.86,1 -3.36,2.33 -4.5,3.97 -1.15,1.65 -1.72,3.76 -1.72,6.33 0,4 2.15,7.22 6.43,9.65 4.29,2.29 12.3,4.65 24.03,7.08 6.72,1.29 13.41,2.83 20.06,4.61 6.65,1.79 12.55,4.33 17.7,7.61 5.15,3.29 9.33,7.55 12.55,12.77 3.22,5.22 4.83,11.91 4.83,20.06zm209.81 -103.83c1.57,0 2.86,0.46 3.86,1.39 1,0.93 1.5,2.25 1.5,3.97l0 138.8c0,1.57 -0.5,2.79 -1.5,3.65 -1,1 -2.29,1.5 -3.86,1.5l-27.24 0c-1.43,0 -2.69,-0.54 -3.76,-1.61 -1.07,-1.07 -1.61,-2.25 -1.61,-3.54l0 -73.37c0,-0.72 -0.36,-1.07 -1.07,-1.07 -0.43,0 -0.79,0.15 -1.07,0.43l-20.81 38.41c-1.86,3.29 -4.36,4.93 -7.51,4.93l-11.58 0c-3,0 -5.51,-1.65 -7.51,-4.93l-20.6 -38.19c-0.28,-0.43 -0.64,-0.65 -1.07,-0.65 -0.72,0 -1.07,0.36 -1.07,1.07l0 73.37c0,1.43 -0.57,2.65 -1.72,3.65 -1,1 -2.29,1.5 -3.86,1.5l-27.03 0c-1.57,0 -2.86,-0.5 -3.86,-1.5 -1,-0.86 -1.5,-2.07 -1.5,-3.65l0 -126.36c0,-3 0.65,-5.65 1.93,-7.94 1.29,-2.29 2.86,-4.15 4.72,-5.58 1.86,-1.43 3.79,-2.5 5.79,-3.22 2,-0.72 3.72,-1.07 5.15,-1.07l12.01 0c3.43,0 6.01,1.5 7.72,4.5l35.61 64.15c0.14,0.43 0.5,0.64 1.07,0.64 0.43,0 0.79,-0.21 1.07,-0.64l35.83 -64.15c1.72,-3 4.29,-4.5 7.72,-4.5l24.24 0zm96.76 151.46c-20.31,0 -36.33,-4.93 -48.06,-14.8 -11.73,-9.87 -17.95,-24.39 -18.67,-43.55 -0.14,-4 -0.21,-10.15 -0.21,-18.45 0,-8.3 0.07,-14.52 0.21,-18.67 0.57,-18.88 6.83,-33.43 18.77,-43.66 11.94,-10.23 27.93,-15.34 47.95,-15.34 19.88,0 35.79,5.11 47.74,15.34 11.94,10.22 18.2,24.78 18.77,43.66 0.28,8.3 0.43,14.52 0.43,18.67 0,4.29 -0.15,10.44 -0.43,18.45 -0.72,19.17 -6.9,33.68 -18.56,43.55 -11.66,9.87 -27.64,14.8 -47.95,14.8zm0 -32.18c7.44,0 13.37,-2.25 17.81,-6.76 4.43,-4.51 6.8,-11.41 7.08,-20.7 0.29,-8.3 0.43,-14.23 0.43,-17.81 0,-3.57 -0.14,-9.37 -0.43,-17.38 -0.28,-9.3 -2.65,-16.2 -7.08,-20.7 -4.43,-4.5 -10.37,-6.76 -17.81,-6.76 -7.58,0 -13.59,2.26 -18.02,6.76 -4.43,4.5 -6.8,11.41 -7.08,20.7 -0.15,4.01 -0.22,9.8 -0.22,17.38 0,7.72 0.07,13.66 0.22,17.81 0.28,9.3 2.65,16.2 7.08,20.7 4.43,4.5 10.44,6.76 18.02,6.76zm91.18 24.24l0 -125.5c0,-5.44 1.86,-9.91 5.58,-13.41 3.72,-3.5 8.08,-5.26 13.09,-5.26l17.17 0c1.72,0 3,0.5 3.86,1.5 1,1 1.5,2.29 1.5,3.86l0 138.81c0,1.43 -0.5,2.65 -1.5,3.65 -0.85,1.15 -2.14,1.72 -3.86,1.72l-30.46 0c-1.43,0 -2.68,-0.54 -3.76,-1.61 -1.07,-1.07 -1.61,-2.32 -1.61,-3.75zm59 4.5c-0.86,-1.15 -1.29,-2.22 -1.29,-3.22 0,-1 0.07,-1.65 0.21,-1.93l49.78 -136.87c1.57,-4.15 4.43,-6.22 8.58,-6.22l33.26 0c4.15,0 7.01,2.07 8.58,6.22l49.77 136.87c0.15,0.29 0.22,0.93 0.22,1.93 0,1.14 -0.46,2.18 -1.39,3.11 -0.93,0.93 -1.97,1.39 -3.11,1.39l-27.67 0c-3.57,0 -6.01,-1.57 -7.3,-4.72l-11.15 -30.25c-5.15,2 -10.37,3.65 -15.66,4.93 -5.29,1.29 -10.41,2.25 -15.34,2.9 -4.94,0.64 -9.55,1.07 -13.84,1.29 -4.29,0.21 -8.01,0.32 -11.16,0.32 -2,0 -3.68,0 -5.04,0 -1.36,0 -2.4,-0.07 -3.11,-0.21 2.57,0.43 4.68,1.86 6.33,4.29 1.65,2.43 1.82,5.29 0.54,8.58l-3 8.15c-1.28,3.15 -3.72,4.72 -7.29,4.72l-27.68 0c-1,0 -2.07,-0.43 -3.22,-1.29zm54.49 -54.92c4,-0.29 8.15,-0.79 12.44,-1.5 3.72,-0.57 7.62,-1.4 11.69,-2.47 4.08,-1.07 7.97,-2.61 11.69,-4.61l-16.52 -47.2 -19.31 55.78zm111.77 50.2l0 -125.5c0,-5 1.79,-9.37 5.36,-13.09 3.57,-3.72 8.01,-5.57 13.3,-5.57l7.08 0c1.57,0 3.43,0.32 5.58,0.96 2.15,0.64 4.36,2.54 6.65,5.69 8.44,13.16 16.02,25.03 22.74,35.61 4.15,6.43 7.4,11.55 9.76,15.34 2.36,3.79 4.61,7.29 6.76,10.51 2.15,3.22 3.93,5.97 5.36,8.26 1.43,2.29 2.29,3.65 2.57,4.07 0,0.29 0.29,0.43 0.86,0.43 0.72,0 1.07,-0.36 1.07,-1.07l0 -61.15c0,-5.57 1.93,-10.08 5.79,-13.52 3.86,-3.43 8.22,-5.15 13.09,-5.15l13.73 0c1.57,0 2.86,0.5 3.86,1.5 1,1.29 1.5,2.65 1.5,4.07l0 138.38c0,1.29 -0.5,2.57 -1.5,3.86 -1.14,1.14 -2.43,1.72 -3.86,1.72l-24.24 0c-3.15,0 -5.58,-1.36 -7.3,-4.08 -8.58,-13.16 -16.3,-24.96 -23.17,-35.4 -4.15,-6.29 -7.44,-11.33 -9.87,-15.13 -2.43,-3.79 -4.72,-7.29 -6.86,-10.51 -2.15,-3.22 -3.93,-5.93 -5.37,-8.15 -1.43,-2.22 -2.29,-3.54 -2.57,-3.97 -0.43,-0.43 -0.78,-0.64 -1.07,-0.64 -0.72,0 -1.07,0.36 -1.07,1.07l0 71.44c0,1.57 -0.57,2.86 -1.72,3.86 -1.15,1 -2.43,1.5 -3.86,1.5l-27.25 0c-1.29,0 -2.5,-0.57 -3.65,-1.72 -1.15,-1.15 -1.72,-2.36 -1.72,-3.65zm154.68 0.22l0 -125.5c0,-5.44 1.86,-9.91 5.58,-13.41 3.72,-3.5 8.08,-5.26 13.09,-5.26l87.53 0c1.57,0 2.9,0.54 3.97,1.61 1.07,1.07 1.61,2.39 1.61,3.97l0 21.24c0,1.57 -0.5,2.79 -1.5,3.65 -1,1 -2.36,1.5 -4.08,1.5l-79.16 0c3.43,0 6.26,1.22 8.47,3.65 2.22,2.43 3.33,5.07 3.33,7.94l0 9.01c0,1.57 0.54,3.07 1.61,4.5 1.07,1.43 2.68,2.15 4.83,2.15l46.77 0c1.57,0 2.9,0.54 3.97,1.61 1.07,1.07 1.61,2.39 1.61,3.97l0 19.31c0,1.57 -0.54,2.9 -1.61,3.97 -1.07,1.07 -2.39,1.61 -3.97,1.61l-65 0c3.29,0 6.08,1.14 8.37,3.43 2.29,2.29 3.43,4.86 3.43,7.72l0 10.08c0,1.57 0.57,3.08 1.72,4.51 1.15,1.43 2.72,2.15 4.72,2.15l62.64 0c3.72,0 5.58,1.86 5.58,5.58l0 21.02c0,1.72 -0.54,3.04 -1.61,3.97 -1.07,0.93 -2.4,1.39 -3.97,1.39l-102.55 0c-1.43,0 -2.68,-0.54 -3.75,-1.61 -1.07,-1.07 -1.61,-2.32 -1.61,-3.75z"/>
  <path class="fil2" d="M81.97 726.67l0 20.12 -42 0 0 21.73 31.43 0 0 19.54 -31.43 0 0 41.7 -25.11 0 0 -103.09 67.11 0zm94.14 21.15l0 81.94 -25.11 0 0 -11.16c-2.55,3.62 -6,6.54 -10.35,8.74 -4.35,2.2 -9.18,3.3 -14.46,3.3 -6.26,0 -11.8,-1.4 -16.59,-4.19 -4.8,-2.79 -8.52,-6.83 -11.16,-12.12 -2.64,-5.28 -3.96,-11.5 -3.96,-18.65l0 -47.87 24.96 0 0 44.5c0,5.48 1.42,9.74 4.26,12.78 2.84,3.04 6.66,4.56 11.46,4.56 4.89,0 8.76,-1.52 11.6,-4.56 2.84,-3.03 4.26,-7.29 4.26,-12.78l0 -44.5 25.11 0zm67.99 -0.88c9.59,0 17.26,3.11 22.98,9.33 5.72,6.22 8.59,14.76 8.59,25.63l0 47.87 -24.96 0 0 -44.5c0,-5.48 -1.42,-9.74 -4.26,-12.78 -2.84,-3.04 -6.66,-4.56 -11.46,-4.56 -4.8,0 -8.61,1.52 -11.45,4.56 -2.84,3.03 -4.26,7.29 -4.26,12.78l0 44.5 -25.11 0 0 -81.94 25.11 0 0 10.87c2.55,-3.62 5.97,-6.48 10.28,-8.59 4.31,-2.1 9.15,-3.16 14.54,-3.16zm44.06 41.71c0,-8.42 1.59,-15.81 4.78,-22.18 3.18,-6.36 7.51,-11.26 13,-14.69 5.48,-3.43 11.6,-5.14 18.35,-5.14 5.39,0 10.31,1.13 14.76,3.38 4.46,2.25 7.96,5.28 10.5,9.1l0 -38.04 25.11 0 0 108.67 -25.11 0 0 -11.75c-2.35,3.92 -5.7,7.05 -10.06,9.4 -4.35,2.35 -9.42,3.52 -15.2,3.52 -6.75,0 -12.87,-1.74 -18.35,-5.21 -5.48,-3.48 -9.81,-8.42 -13,-14.83 -3.18,-6.41 -4.78,-13.83 -4.78,-22.25zm61.39 0.15c0,-6.26 -1.74,-11.21 -5.21,-14.83 -3.48,-3.62 -7.71,-5.44 -12.7,-5.44 -5,0 -9.23,1.79 -12.7,5.36 -3.48,3.57 -5.21,8.49 -5.21,14.76 0,6.26 1.74,11.23 5.21,14.91 3.48,3.67 7.71,5.51 12.7,5.51 4.99,0 9.22,-1.81 12.7,-5.44 3.48,-3.62 5.21,-8.56 5.21,-14.83zm38.33 -0.15c0,-8.42 1.59,-15.81 4.78,-22.18 3.18,-6.36 7.51,-11.26 13,-14.69 5.48,-3.43 11.6,-5.14 18.35,-5.14 5.78,0 10.85,1.17 15.2,3.52 4.36,2.35 7.71,5.43 10.06,9.25l0 -11.6 25.11 0 0 81.94 -25.11 0 0 -11.6c-2.44,3.82 -5.85,6.9 -10.2,9.25 -4.36,2.35 -9.43,3.52 -15.2,3.52 -6.66,0 -12.73,-1.74 -18.21,-5.21 -5.48,-3.48 -9.81,-8.42 -13,-14.83 -3.18,-6.41 -4.78,-13.83 -4.78,-22.25zm61.39 0.15c0,-6.26 -1.74,-11.21 -5.21,-14.83 -3.48,-3.62 -7.71,-5.44 -12.7,-5.44 -5,0 -9.23,1.79 -12.7,5.36 -3.48,3.57 -5.21,8.49 -5.21,14.76 0,6.26 1.74,11.23 5.21,14.91 3.48,3.67 7.71,5.51 12.7,5.51 4.99,0 9.22,-1.81 12.7,-5.44 3.48,-3.62 5.21,-8.56 5.21,-14.83zm38.33 -0.15c0,-8.42 1.59,-15.81 4.78,-22.18 3.18,-6.36 7.51,-11.26 13,-14.69 5.48,-3.43 11.6,-5.14 18.35,-5.14 5.39,0 10.31,1.13 14.76,3.38 4.46,2.25 7.96,5.28 10.5,9.1l0 -38.04 25.11 0 0 108.67 -25.11 0 0 -11.75c-2.35,3.92 -5.7,7.05 -10.06,9.4 -4.35,2.35 -9.42,3.52 -15.2,3.52 -6.75,0 -12.87,-1.74 -18.35,-5.21 -5.48,-3.48 -9.81,-8.42 -13,-14.83 -3.18,-6.41 -4.78,-13.83 -4.78,-22.25zm61.39 0.15c0,-6.26 -1.74,-11.21 -5.21,-14.83 -3.48,-3.62 -7.71,-5.44 -12.7,-5.44 -5,0 -9.23,1.79 -12.7,5.36 -3.48,3.57 -5.21,8.49 -5.21,14.76 0,6.26 1.74,11.23 5.21,14.91 3.48,3.67 7.71,5.51 12.7,5.51 4.99,0 9.22,-1.81 12.7,-5.44 3.48,-3.62 5.21,-8.56 5.21,-14.83zm80.62 42.15c-8.03,0 -15.25,-1.71 -21.66,-5.14 -6.41,-3.43 -11.45,-8.32 -15.13,-14.69 -3.67,-6.37 -5.51,-13.81 -5.51,-22.32 0,-8.42 1.86,-15.83 5.58,-22.25 3.72,-6.41 8.81,-11.33 15.27,-14.76 6.46,-3.43 13.71,-5.14 21.74,-5.14 8.03,0 15.27,1.71 21.73,5.14 6.46,3.43 11.56,8.35 15.28,14.76 3.72,6.41 5.58,13.83 5.58,22.25 0,8.42 -1.89,15.83 -5.65,22.25 -3.77,6.41 -8.91,11.33 -15.42,14.76 -6.51,3.43 -13.78,5.14 -21.81,5.14zm0 -21.73c4.8,0 8.89,-1.76 12.26,-5.29 3.38,-3.52 5.07,-8.57 5.07,-15.13 0,-6.56 -1.64,-11.6 -4.92,-15.13 -3.28,-3.52 -7.32,-5.29 -12.11,-5.29 -4.9,0 -8.96,1.74 -12.19,5.21 -3.23,3.48 -4.85,8.54 -4.85,15.2 0,6.56 1.59,11.6 4.77,15.13 3.18,3.52 7.17,5.29 11.97,5.29zm81.36 -47.73c2.94,-4.5 6.61,-8.05 11.02,-10.65 4.41,-2.59 9.3,-3.89 14.69,-3.89l0 26.58 -6.9 0c-6.27,0 -10.96,1.35 -14.1,4.04 -3.13,2.69 -4.7,7.42 -4.7,14.17l0 38.04 -25.11 0 0 -81.94 25.11 0 0 13.66zm95.02 27.17c0,-8.42 1.59,-15.81 4.78,-22.18 3.18,-6.36 7.51,-11.26 13,-14.69 5.48,-3.43 11.6,-5.14 18.35,-5.14 5.39,0 10.31,1.13 14.76,3.38 4.46,2.25 7.96,5.28 10.5,9.1l0 -38.04 25.11 0 0 108.67 -25.11 0 0 -11.75c-2.35,3.92 -5.7,7.05 -10.06,9.4 -4.35,2.35 -9.42,3.52 -15.2,3.52 -6.75,0 -12.87,-1.74 -18.35,-5.21 -5.48,-3.48 -9.81,-8.42 -13,-14.83 -3.18,-6.41 -4.78,-13.83 -4.78,-22.25zm61.39 0.15c0,-6.26 -1.74,-11.21 -5.21,-14.83 -3.48,-3.62 -7.71,-5.44 -12.7,-5.44 -5,0 -9.23,1.79 -12.7,5.36 -3.48,3.57 -5.21,8.49 -5.21,14.76 0,6.26 1.74,11.23 5.21,14.91 3.48,3.67 7.71,5.51 12.7,5.51 4.99,0 9.22,-1.81 12.7,-5.44 3.48,-3.62 5.21,-8.56 5.21,-14.83zm38.33 -0.15c0,-8.42 1.59,-15.81 4.78,-22.18 3.18,-6.36 7.51,-11.26 13,-14.69 5.48,-3.43 11.6,-5.14 18.35,-5.14 5.78,0 10.85,1.17 15.2,3.52 4.36,2.35 7.71,5.43 10.06,9.25l0 -11.6 25.11 0 0 81.94 -25.11 0 0 -11.6c-2.44,3.82 -5.85,6.9 -10.2,9.25 -4.36,2.35 -9.43,3.52 -15.2,3.52 -6.66,0 -12.73,-1.74 -18.21,-5.21 -5.48,-3.48 -9.81,-8.42 -13,-14.83 -3.18,-6.41 -4.78,-13.83 -4.78,-22.25zm61.39 0.15c0,-6.26 -1.74,-11.21 -5.21,-14.83 -3.48,-3.62 -7.71,-5.44 -12.7,-5.44 -5,0 -9.23,1.79 -12.7,5.36 -3.48,3.57 -5.21,8.49 -5.21,14.76 0,6.26 1.74,11.23 5.21,14.91 3.48,3.67 7.71,5.51 12.7,5.51 4.99,0 9.22,-1.81 12.7,-5.44 3.48,-3.62 5.21,-8.56 5.21,-14.83zm148.62 -62.12l0 20.12 -27.31 0 0 82.97 -25.11 0 0 -82.97 -27.31 0 0 -20.12 79.74 0zm76.8 84.88l-38.48 0 -6.17 18.21 -26.29 0 37.3 -103.09 29.08 0 37.3 103.09 -26.58 0 -6.17 -18.21zm-6.46 -19.39l-12.78 -37.74 -12.63 37.74 25.41 0zm87.82 38.62c-7.54,0 -14.3,-1.22 -20.26,-3.67 -5.97,-2.45 -10.75,-6.07 -14.32,-10.87 -3.57,-4.8 -5.46,-10.57 -5.65,-17.33l26.72 0c0.39,3.82 1.72,6.73 3.97,8.74 2.25,2.01 5.19,3.01 8.81,3.01 3.72,0 6.66,-0.86 8.81,-2.57 2.15,-1.71 3.23,-4.09 3.23,-7.12 0,-2.55 -0.85,-4.65 -2.57,-6.31 -1.72,-1.67 -3.82,-3.04 -6.31,-4.11 -2.5,-1.08 -6.05,-2.3 -10.65,-3.67 -6.66,-2.06 -12.09,-4.11 -16.3,-6.17 -4.21,-2.06 -7.83,-5.09 -10.87,-9.1 -3.04,-4.02 -4.56,-9.25 -4.56,-15.71 0,-9.59 3.48,-17.11 10.43,-22.54 6.95,-5.43 16,-8.15 27.17,-8.15 11.36,0 20.51,2.72 27.46,8.15 6.95,5.43 10.67,13 11.16,22.69l-27.17 0c-0.2,-3.33 -1.42,-5.95 -3.67,-7.86 -2.25,-1.91 -5.14,-2.86 -8.67,-2.86 -3.03,0 -5.48,0.81 -7.34,2.42 -1.86,1.62 -2.79,3.94 -2.79,6.98 0,3.33 1.57,5.93 4.7,7.78 3.13,1.86 8.03,3.87 14.69,6.02 6.66,2.25 12.07,4.41 16.23,6.46 4.16,2.06 7.76,5.04 10.8,8.96 3.04,3.92 4.55,8.96 4.55,15.13 0,5.87 -1.49,11.21 -4.48,16.01 -2.98,4.8 -7.31,8.61 -13,11.45 -5.68,2.84 -12.38,4.26 -20.12,4.26zm112.78 -1.03l-34.66 -45.52 0 45.52 -25.11 0 0 -103.09 25.11 0 0 45.23 34.37 -45.23 29.52 0 -39.94 50.52 41.41 52.57 -30.69 0z"/>
 </g>
</svg>
